<svg class="main-svg" xmlns="http://www.w3.org/2000/svg" xmlns:xlink="http://www.w3.org/1999/xlink" width="700" height="700" style="" viewBox="0 0 700 700"><rect x="0" y="0" width="700" height="700" style="fill: rgb(255, 255, 255); fill-opacity: 1;"/><defs id="defs-47e3d6"><g class="clips"><clipPath id="clip47e3d6xyplot" class="plotclip"><rect width="540" height="280.79999999999995"/></clipPath><clipPath id="clip47e3d6x2y2plot" class="plotclip"><rect width="540" height="187.20000000000002"/></clipPath><clipPath class="axesclip" id="clip47e3d6x"><rect x="80" y="0" width="540" height="700"/></clipPath><clipPath class="axesclip" id="clip47e3d6y"><rect x="0" y="100" width="700" height="280.79999999999995"/></clipPath><clipPath class="axesclip" id="clip47e3d6xy"><rect x="80" y="100" width="540" height="280.79999999999995"/></clipPath><clipPath class="axesclip" id="clip47e3d6y2"><rect x="0" y="432.79999999999995" width="700" height="187.20000000000002"/></clipPath><clipPath class="axesclip" id="clip47e3d6xy2"><rect x="80" y="432.79999999999995" width="540" height="187.20000000000002"/></clipPath><clipPath class="axesclip" id="clip47e3d6x2"><rect x="80" y="0" width="540" height="700"/></clipPath><clipPath class="axesclip" id="clip47e3d6x2y"><rect x="80" y="100" width="540" height="280.79999999999995"/></clipPath><clipPath class="axesclip" id="clip47e3d6x2y2"><rect x="80" y="432.79999999999995" width="540" height="187.20000000000002"/></clipPath></g><g class="gradients"/><g class="patterns"/></defs><g class="bglayer"/><g class="layer-below"><g class="imagelayer"/><g class="shapelayer"/></g><g class="cartesianlayer"><g class="subplot xy"><g class="layer-subplot"><g class="shapelayer"/><g class="imagelayer"/></g><g class="minor-gridlayer"><g class="x"/><g class="y"/></g><g class="gridlayer"><g class="x"><path class="xgrid crisp" transform="translate(168.53,0)" d="M0,100v280.79999999999995" style="stroke: rgb(235, 240, 248); stroke-opacity: 1; stroke-width: 1px;"/><path class="xgrid crisp" transform="translate(258.53999999999996,0)" d="M0,100v280.79999999999995" style="stroke: rgb(235, 240, 248); stroke-opacity: 1; stroke-width: 1px;"/><path class="xgrid crisp" transform="translate(348.56,0)" d="M0,100v280.79999999999995" style="stroke: rgb(235, 240, 248); stroke-opacity: 1; stroke-width: 1px;"/><path class="xgrid crisp" transform="translate(440.04,0)" d="M0,100v280.79999999999995" style="stroke: rgb(235, 240, 248); stroke-opacity: 1; stroke-width: 1px;"/><path class="xgrid crisp" transform="translate(530.05,0)" d="M0,100v280.79999999999995" style="stroke: rgb(235, 240, 248); stroke-opacity: 1; stroke-width: 1px;"/></g><g class="y"><path class="ygrid crisp" transform="translate(0,308.86)" d="M80,0h540" style="stroke: rgb(235, 240, 248); stroke-opacity: 1; stroke-width: 1px;"/><path class="ygrid crisp" transform="translate(0,250.96)" d="M80,0h540" style="stroke: rgb(235, 240, 248); stroke-opacity: 1; stroke-width: 1px;"/><path class="ygrid crisp" transform="translate(0,193.06)" d="M80,0h540" style="stroke: rgb(235, 240, 248); stroke-opacity: 1; stroke-width: 1px;"/><path class="ygrid crisp" transform="translate(0,135.17000000000002)" d="M80,0h540" style="stroke: rgb(235, 240, 248); stroke-opacity: 1; stroke-width: 1px;"/></g></g><g class="zerolinelayer"><path class="yzl zl crisp" transform="translate(0,366.76)" d="M80,0h540" style="stroke: rgb(235, 240, 248); stroke-opacity: 1; stroke-width: 2px;"/></g><g class="layer-between"><g class="shapelayer"/><g class="imagelayer"/></g><path class="xlines-below"/><path class="ylines-below"/><g class="overlines-below"/><g class="xaxislayer-below"/><g class="yaxislayer-below"/><g class="overaxes-below"/><g class="overplot"><g class="xy" transform="translate(80,100)" clip-path="url(#clip47e3d6xyplot)"><g class="scatterlayer mlayer"><g class="trace scatter trace66138b" style="stroke-miterlimit: 2; opacity: 1;"><g class="fills"/><g class="errorbars"/><g class="lines"><path class="js-line" d="M0,266.76L0.43,266.76L0.49,265.74L0.92,185.23L0.98,266.76L1.91,266.76L1.97,265.76L2.4,185.96L2.46,266.76L2.52,266.76L2.58,266.76L3.38,266.76L3.44,265.52L3.75,240.94L3.81,264.65L3.87,173.2L4.67,266.76L4.73,266.76L4.92,266.36L4.98,255.8L5.16,222.43L5.41,266.76L5.66,266.76L5.72,266.76L6.39,266.36L6.46,258.41L6.7,242.17L6.89,266.76L7.07,266.76L7.13,266.76L7.81,266.76L7.87,265.49L8.3,223.99L8.36,266.76L8.42,266.76L9.28,266.76L9.35,265.51L9.78,205.18L9.9,266.76L10.08,266.76L10.14,266.76L10.76,266.76L10.82,265.72L11.19,140.82L11.25,179.31L11.31,248.8L12.11,266.76L12.17,266.76L12.3,266.35L12.36,255.75L12.48,247.7L12.85,266.76L12.97,266.76L13.03,266.76L13.71,266.76L13.77,265.72L14.02,249.26L14.33,266.76L14.51,266.76L14.57,266.76L15.19,266.76L15.25,265.49L15.68,222.6L15.8,266.76L15.92,266.76L15.99,266.76L16.72,266.14L16.78,255.03L17.09,139.4L17.15,170.57L17.22,247.07L18.01,266.76L18.08,266.76L18.26,257.59L18.32,253.18L18.57,263.74L18.63,177.43L19.43,266.76L19.49,266.76L19.67,266.36L19.74,261.46L19.98,225.93L20.23,266.76L20.47,266.76L20.54,266.76L21.09,266.76L21.15,265.28L21.4,245.31L21.7,266.76L21.83,266.76L21.89,266.76L22.56,266.76L22.63,265.26L23.06,203.66L23.12,252.66L23.92,266.76L23.98,266.76L24.16,251.63L24.22,243.35L24.29,229.59L24.65,266.76L24.84,266.76L24.9,266.76L25.52,266.76L25.58,264.56L25.88,146.01L26.07,226.78L26.13,266.76L26.99,266.76L27.05,265.5L27.36,210.51L27.61,266.76L27.79,266.76L27.85,266.76L28.47,266.76L28.53,263.92L29.02,196.75L29.08,266.76L29.94,266.76L30,264.38L30.13,236.25L30.56,266.76L30.74,266.76L30.8,266.76L31.42,266.76L31.48,264.02L31.6,240.26L32.03,266.76L32.09,266.76L32.16,266.76L32.89,266.76L32.95,263.38L33.32,143.4L33.51,266.76L33.57,266.76L34.37,266.76L34.43,264.21L34.61,258.33L34.68,249.61L34.8,176.06L35.48,266.76L35.54,266.76L35.84,266.76L35.91,263.48L36.09,233.27L36.46,266.76L36.52,266.76L36.58,266.76L37.32,266.76L37.38,263.05L37.57,254.97L37.69,258.6L37.75,139.13L38.55,266.76L38.61,266.76L38.8,266.76L38.86,263.65L39.16,245.48L39.41,266.76L39.53,266.76L39.59,266.76L40.27,266.76L40.33,262.72L40.46,241.48L40.89,266.76L40.95,266.76L41.75,266.76L41.81,262.35L42.12,234.8L42.18,250.82L42.24,264.5L42.3,259.96L42.36,266.76L42.91,266.76L42.98,266.76L43.22,266.76L43.28,261.83L43.53,240.71L43.78,243.74L43.84,266.76L44.7,266.76L44.76,261.69L45.25,256.99L45.31,266.76L45.44,266.76L45.5,266.76L46.17,266.76L46.23,262.25L46.42,214.01L46.48,167.74L46.6,115.44L46.79,266.76L47.03,266.76L47.1,266.76L47.65,266.76L47.71,264.08L48.02,203.06L48.2,265.75L48.26,266.76L49.12,266.76L49.19,261.26L49.68,234.31L49.74,266.76L49.8,266.76L49.86,266.76L50.6,266.76L50.66,259.47L50.72,259.3L50.78,252.51L51.03,255.71L51.09,244.32L51.15,196.1L51.95,266.76L52.01,266.76L52.57,241.99L52.63,186.19L53.43,266.76L53.49,266.76L53.92,231.8L54.04,248.15L54.1,202.08L54.9,266.76L54.97,266.76L55.27,252.54L55.52,263.67L55.58,195.41L56.38,266.76L56.44,266.76L56.99,175.8L57.06,253.59L57.85,266.76L57.92,266.76L58.22,237.62L58.47,261.39L58.53,265.18L59.33,266.76L59.39,266.76L59.88,221.69L60.01,250.9L60.07,266.76L60.93,266.76L60.99,259.09L61.48,155.51L61.61,266.76L61.67,266.76L61.73,266.76L62.4,266.76L62.47,259.46L62.84,169.56L63.08,266.76L63.14,266.76L63.88,266.76L63.94,256.32L64.19,228L64.5,266.15L64.56,266.76L65.36,266.76L65.42,261.03L65.79,104.32L66.03,266.76L66.09,266.76L66.16,266.76L66.83,266.76L66.89,261.99L67.38,192.77L67.45,252.73L67.51,266.76L68.31,266.76L68.37,258.92L68.74,182.01L68.92,239.55L68.98,266.76L69.78,266.76L69.84,257.28L70.21,96.57L70.27,99.01L70.34,239.29L71.2,266.76L71.26,266.76L71.69,98.95L71.81,132.26L71.87,246.08L72.67,266.76L72.73,265.49L73.04,194.49L73.35,228.49L73.41,266.76L74.15,266.76L74.21,265.26L74.58,137.45L74.64,100L74.76,132.14L74.82,230.86L75.62,266.76L75.68,266.16L76.05,216.26L76.3,257.19L76.36,266.76L77.1,266.76L77.16,265.27L77.53,120.7L77.71,256.64L77.78,264.28L78.57,266.76L78.64,264.1L79,104.28L79.07,117.19L79.13,225.86L79.25,189.56L79.93,266.76L79.99,266.76L80.3,246.17L80.36,194.2L80.42,181.51L80.73,259.11L80.79,266.76L81.53,266.76L81.59,263.85L82.2,211.63L82.26,266.76L83,266.76L83.06,263.65L83.37,152.18L83.49,194.14L83.55,224.08L84.35,266.76L84.42,266.76L84.66,251.73L84.72,241.5L84.78,219.91L85.21,266.76L85.34,266.76L85.4,266.76L86.01,266.14L86.08,264.37L86.32,244.66L86.38,259.14L86.44,233.21L86.57,220.39L87,266.76" style="vector-effect: none; fill: none; stroke: rgb(65, 105, 225); stroke-opacity: 1; stroke-width: 1px; opacity: 1;"/><path class="js-line" d="M88.53,266.76L88.9,266.76L88.97,262.14L89.21,188.03L89.27,153.51L90.13,266.76L90.19,266.76L90.38,266.76L90.44,261.03L90.99,163.07L91.06,178.66L91.12,266.76L91.85,266.76L91.92,260.98L92.53,193.82L92.59,266.76L92.65,266.76L93.33,266.76L93.39,259.05L93.7,142.31L93.76,114.42L94.62,266.76L94.68,266.76L94.99,224.27L95.05,199.96L95.36,84.55L95.48,164.95L95.54,266.76L96.28,266.76L96.34,258.06L96.65,134.05L96.71,101.06L96.77,82.28L96.96,250.27L97.02,266.76L97.76,266.76L97.82,260.32L98.06,181.3L98.13,135.92L98.25,89.62L98.49,266.76L98.62,266.76L98.68,266.76L99.23,266.76L99.29,256.18L99.66,150.39L99.79,218.38L99.85,234.77L100.71,266.76L100.77,257.64L101.08,212.69L101.26,262.73L101.38,254.54L101.45,266.76L102.18,266.76L102.25,258.05L102.74,77.74L102.86,155.95L102.92,266.76L103.66,266.76L103.72,258.8L103.97,177.76L104.03,132.44L104.15,87.2L104.4,266.76L104.46,266.76L104.52,266.76L105.13,266.76L105.2,259L105.44,178.1L105.5,132.82L105.63,86.53L105.87,266.76L105.93,266.76L106,266.76L106.61,266.76L106.67,263.44L106.86,215.2L107.35,266.76L107.41,266.76L108.09,266.76L108.15,260.53L108.7,148.45L108.76,191.54L108.82,266.76L109.56,266.76L109.62,258.75L109.99,97.91L110.11,207.1L110.18,243.02L111.04,266.76L111.1,253.74L111.16,255.12L111.22,227.73L111.34,214.45L111.59,259.87L111.71,238.63L111.78,266.03L112.45,266.76L112.51,266.58L112.57,249.09L113.07,73.48L113.19,139.19L113.25,252.68L113.93,266.76L113.99,266.36L114.05,256.57L114.36,163.14L114.66,184.33L114.73,266.16L115.4,266.76L115.46,265.94L115.53,255.01L116.02,68.29L116.14,171.1L116.2,259.28L116.88,266.76L116.94,265.52L117,254.56L117.25,156.71L117.68,265.94L117.74,266.76L118.35,266.76L118.42,265.04L118.97,54.8L119.09,120.9L119.15,244.86L119.83,266.76L119.89,263.93L119.95,254.33L120.14,218.91L120.2,162.62L120.26,116.91L120.69,266.76L120.81,266.76L120.87,266.76L121.3,266.76L121.37,263.69L121.67,160.47L121.74,111.9L121.92,55.1L122.17,266.76L122.23,266.76L122.78,266.76L122.84,263.47L123.4,63.09L123.52,145.45L123.58,232.3L124.26,266.76L124.32,265.55L124.38,252.5L124.81,187.67L124.93,237.27L124.99,259.91L125.73,266.76L125.79,264.07L125.85,261.91L125.98,252.73L126.04,200.98L126.9,266.76L126.96,266.76L127.21,266.76L127.27,264.56L127.7,94.94L127.76,118.2L127.82,232.91L128.68,266.76L128.74,261.66L129.24,166.82L129.3,226.55L129.36,249.16L129.48,216.28L130.16,266.76L130.22,261.62L130.47,196.39L130.83,251.1L130.9,261.05L130.96,207.23L131.02,266.76L131.63,266.76L131.7,261.04L132.13,194.92L132.31,237.19L132.37,260.86L132.43,230.68L132.49,266.76L133.05,266.76L133.11,266.76L133.42,210.94L133.48,156.01L133.72,64.57L133.97,266.76L134.03,266.76L134.09,266.76L134.58,266.76L134.65,258.25L134.89,209.63L134.95,154.14L135.2,62.1L135.45,266.76L135.51,266.76L135.57,266.76L136.06,266.76L136.12,262.39L136.49,111.73L136.55,80.37L136.68,61.43L136.86,196.17L136.92,266.76L137.54,266.76L137.6,257.59L137.91,165.15L138.27,255.18L138.34,262.68L139.01,266.76L139.07,260.04L139.32,208.93L139.38,155.83L139.63,64.9L139.87,266.76L139.93,266.76L140,266.76L140.49,266.76L140.55,260.01L140.86,159.03L140.92,117.93L140.98,120.44L141.04,91.07L141.1,71.07L141.29,195.93L141.35,266.76L141.96,266.76L142.02,259.72L142.27,202.2L142.33,155.92L142.58,68.78L142.82,266.76L142.89,266.76L142.95,266.76L143.44,266.76L143.5,259.3L143.81,156L143.87,115.57L144.05,69.52L144.3,266.76L144.36,266.76L144.91,266.76L144.98,258.76L145.28,157.4L145.34,118.47L145.53,74.37L145.71,197.86L145.77,266.76L146.39,266.76L146.45,256.89L146.76,158.63L146.82,122.53L147.87,266.76L147.93,256.4L147.99,258.54L148.05,258.14L148.11,236.41L148.17,235.39L148.23,220.42L148.36,157.75L148.73,266.76L148.85,266.76L148.91,266.76L149.34,266.76L149.4,258.35L149.77,154.13L149.83,195.17L149.89,238.03L150.82,266.76L150.88,256.85L151.19,222.36L151.62,257.2L151.68,266.76L152.23,266.76L152.29,265.98L152.66,218.2L152.85,227.22L152.91,259.35L152.97,254.19L153.03,259.75L153.09,185.89L153.71,266.76L153.83,254.65L153.89,250.49L154.07,198.28L154.14,147.58L154.38,62.8L154.63,266.76L154.69,266.76L154.75,266.76L155.24,266.18L155.3,250.5L155.73,189.77L155.98,262.26L156.04,250.42L156.1,266.76L156.66,266.76L156.72,265.57L157.27,163.25L157.33,79.71L157.39,77.16L157.46,110.85L158.13,266.76L158.26,248.47L158.32,251.26L158.81,61.05L158.99,178.38L159.05,266.76L159.61,266.76L159.67,264.75L159.98,174.44L160.35,260.49L160.41,259.2L160.47,234.98L160.53,266.76L161.08,266.76L161.15,265.6L161.7,138.06L161.76,144.4L161.82,216.52L162.56,266.76L162.62,264.13L162.68,254.17L163.24,161.34L163.42,256.13L163.48,266.76L164.04,266.76L164.1,263.6L164.4,149.71L164.47,131.31L164.65,103.81L164.77,165.68L164.83,211.02L164.9,185.31L165.02,266.76L165.39,266.76L165.45,266.76L165.76,244.94L165.82,171.32L166.06,73.16L166.31,224.85L166.37,258.86L166.99,266.76L167.05,262.15L167.11,248.81L167.6,84.05L167.85,242.57L167.91,261.58L168.46,266.76L168.52,262.8L168.58,247.36L168.65,251.13L168.77,243.43L168.83,188.25L169.14,50.89L169.45,266.76L169.51,266.76L169.94,266.76L170,262.05L170.49,81.6L170.8,216.14L170.86,266.58L171.41,266.76L171.47,264.76L172.03,68.77L172.21,115.08L172.27,218.73L172.89,266.76L173.01,254.89L173.07,227.29L173.26,196.23L173.56,255.48L173.69,252.65L173.75,257.32L174.36,266.76L174.49,256.86L174.55,245.67L175.04,49.5L175.22,150L175.29,244.98L175.84,266.76L175.96,244.49L176.02,225.79L176.33,139.45L176.64,241.17L176.7,231.01L176.76,248.96L177.32,266.76L177.44,254.29L177.5,233.23L177.56,232.98L177.62,235.51L177.68,218.45L177.87,208.97L177.93,253.98L177.99,225.83L178.3,266.76L178.61,266.76L178.67,266.76L179.41,222.13L179.47,247.64L179.65,243.93L180.27,266.76L180.33,260.12L180.7,154.49L180.94,196.14L181,227.21L181.74,266.76L181.8,258.95L181.86,259.66L182.17,157.93L182.36,190.04L182.42,255.92L182.6,248.17L183.22,266.76L183.28,259.83L183.77,126.58L183.96,245.67L184.02,255.75L184.69,266.76L184.75,261.08L184.82,256.32L185.25,149.03L185.43,161.14L185.49,250L185.62,234.88L186.17,266.76L186.23,260.2L186.29,246.39L186.66,155.27L186.97,221.72L187.03,256.52L187.15,266.76L187.89,229.81L187.95,222.5L188.01,221.62L188.07,208.62L188.26,117.05L188.38,216.2L188.44,241.16L188.57,232.78L189.12,266.76L189.18,259.4L189.24,251.76L189.8,62.11L189.98,158.33L190.04,232.91L190.6,266.76L190.78,250.47L190.84,248.1L191.09,106.78L191.15,80.18L191.27,62.48L191.46,150.34L191.52,224.35L192.07,266.76L192.26,250.15L192.32,247.48L192.56,108.98L192.62,83.94L192.69,70.4L192.81,134.46L192.87,206.47L193.55,266.76L193.61,257.09L193.67,242.54L193.73,242.28L193.79,225.63L194.04,122.96L194.22,251.5L194.47,230.63L194.53,266.76L195.02,266.76L195.08,259.55L195.39,188.7L195.45,157.97L195.51,147.12L195.7,238.41L195.76,253.99L195.82,253.06L195.88,265.83L196.01,266.76L196.68,229.05L196.74,237.32L196.81,208.26L196.87,194.81L197.24,248.71L197.3,248.18L197.36,260.46L197.42,259.04L197.48,266.76L197.79,266.76L197.85,266.76L198.22,230.98L198.28,202.42L198.4,196.44L198.47,206.29L198.53,204.32L198.59,226.78L199.45,266.76L199.51,258.73L199.57,247.99L200.13,66.73L200.31,152.47L200.37,218.9L200.92,266.76L201.11,233.65L201.17,217.11L201.54,66.35L201.85,220.43L201.91,266.76L202.4,266.2L202.46,255.27L202.89,146.2L203.08,263.33L203.2,213.65L203.26,258.08L203.32,249.67L203.38,266.76L204.06,249.73L204.12,247.04L204.37,120.29L204.67,194.86L204.74,249.35L205.29,266.76L205.41,259.43L205.47,242.61L205.78,147.59L205.84,112.67L205.97,74.51L206.27,213.04L206.33,266.76L206.77,266.76L206.83,265.83L207.32,113.1L207.5,193.79L207.56,226.25L208.24,266.76L208.36,258.24L208.43,253.23L208.67,185.02L208.73,147.21L209.04,86.85L209.22,262.72L209.29,266.76L209.78,266.39L209.84,262.92L210.52,208.94L210.58,159.52L211.19,266.76L211.38,246.96L211.44,220.58L211.75,158.8L212.36,266.76L212.42,266.76L212.67,266.76L212.73,265.6L213.16,185.32L213.22,151.62L213.41,61.85L213.71,266.76L213.84,266.76L213.9,266.76L214.14,266.76L214.2,265.59L214.27,265.99L214.33,256.51L214.76,83.33L215,207.37L215.07,251.46L215.13,236.2L215.19,266.76L215.74,258.22L215.8,264.85L216.3,78.54L216.54,226.09L216.6,254.8L217.09,266.76L217.28,244.58L217.34,241.08L217.59,164.86L217.96,181.37L218.02,245.34L218.08,243.79L218.14,266.76L218.57,266.76L218.63,264.79L219.31,54.64L219.49,149.66L219.55,230.73L220.05,266.76L220.29,225.88L220.35,208.02L220.78,59.1L221.03,195.56L221.09,266.76L221.52,266.76L221.58,264.32L222.01,144.16L222.07,110.39L222.26,69.88L222.5,201.72L222.57,266.76L223,266.76L223.06,264.42L223.49,147.37L223.55,114.4L223.73,83.28L223.92,226.47L223.98,244.65L224.47,266.76L224.66,237.58L224.72,225.94L224.78,229.96L224.84,210.83L224.9,185.73L225.21,150.57L225.39,265.1L225.46,260.61L225.95,266.76L226.13,253.61L226.19,250.72L226.32,234.82L226.38,190L226.44,195.05L226.5,168.59L226.56,128.75L226.69,159.16L226.75,127.29L226.81,231.42L226.87,161.56L226.99,266.76L227.48,264.25L227.55,258.22L227.85,190.45L227.92,158.41L228.04,134.6L228.35,258.66L228.41,261.98L228.9,266.76L229.02,255.56L229.08,250.48L229.27,224.35L229.33,173.49L229.45,195.94L229.58,87.03L229.64,85.9L229.82,183.17L229.88,257.1L230.37,266.76L230.56,247.84L230.62,244.28L230.74,231.47L230.8,192.23L231.11,88.89L231.36,229.61L231.42,265.53L231.85,266.76L231.97,264.33L232.03,248.42L232.46,127.11L232.65,255.53L232.71,250.14L232.83,228.94L233.33,266.76L233.45,252.31L233.51,237.95L234.13,204.95L234.19,257.78L234.31,251.45L234.8,266.76L234.92,260.94L234.99,245.58L235.29,189.7L235.54,258.02L235.6,254.06L235.66,261.68L235.79,221.76L235.91,266.76L236.34,263.59L236.4,264.83L237.2,230.05L237.26,251.16L237.75,266.76L237.94,246.47L238,234.6L238.06,246.15L238.24,141.11L238.31,105.25L238.49,61.93L238.74,189.93L238.8,260.31L239.23,266.76L239.41,253.1L239.47,249.92L239.6,233.46L239.66,186.71L239.97,67.26L240.27,259.82L240.33,266.76L240.7,266.76L240.77,263.61L241.32,102.96L241.5,126.11L241.56,229.54L241.63,215.08L241.81,266.76L242.12,266.76L242.18,266.76L242.55,217.83L242.61,203.03L242.79,206.12L242.86,75.3L242.98,121.78L243.04,241.31L243.65,266.76L243.78,254.51L243.84,248.94L244.15,169.84L244.52,241.76L244.58,254.55L245.13,266.76L245.31,252.69L245.38,237.56L245.5,232.5L245.56,176L245.87,75.73L246.11,242.57L246.18,266.23L246.61,266.76L246.67,263.44L247.1,151.72L247.34,153.04L247.41,248.06L248.08,266.76L248.14,265.85L248.2,254.76L248.45,225.66L248.51,183.44L248.76,109.36L249.07,255.36L249.13,266.05L249.56,266.76L249.62,263.46L249.68,252.04L249.74,252.82L249.8,233.76L250.23,98.62L250.48,169.73L250.54,217.39L251.03,266.76L251.28,242.19L251.34,243.33L251.71,244.19L251.83,131.67L251.89,183.31L251.95,264.17L252.02,228.22L252.14,266.76L252.69,254.28L252.75,251.37L252.88,236.67L252.94,190.87L253.25,75.03L253.55,255.78L253.61,266.76L253.98,266.76L254.05,264.28L254.6,131.09L254.66,161.95L254.72,241.6L254.84,252.45L254.91,193.65L255.46,266.76L255.64,237.41L255.71,224.43L255.77,222.39L255.83,236.08L255.89,192.54L256.14,87.48L256.5,260.78L256.57,266.76L256.93,266.76L257,264.05L257.43,151.51L257.49,117.98L257.67,77.36L257.92,192.6L257.98,255.02L258.41,266.76L258.66,245.1L258.72,242.33L258.96,122.22L259.27,125.18L259.33,232.3L259.39,231.17L259.46,265.21L259.89,266.76L259.95,266.05L260.01,257.69L260.5,97.5L260.56,251.63L260.62,261.49L260.69,132.29L260.99,266.76L261.36,266.76L261.42,264.16L261.98,163.73L262.28,193.77L262.35,228.91L262.84,266.76L263.08,250.88L263.14,200.04L263.39,206.19L263.76,139.88L263.82,200.08L263.88,254.15L264.31,266.76L264.5,250.97L264.56,251.91L264.62,249.88L264.87,149.16L265.3,255.77L265.36,265.65L265.79,266.76L265.85,264.44L265.91,259.7L265.97,260.12L266.03,253.41L266.53,173.07L266.59,182.94L266.65,228.94L266.77,220.49L267.26,266.76L267.45,254.48L267.51,252.12L267.63,238.75L267.69,191.49L268,82.79L268.31,262.28L268.37,266.76L268.74,266.76L268.8,264.86L269.48,84.01L269.6,114.73L269.66,247.09L269.72,226.84L269.85,266.76L270.34,265.67L270.4,252.98L270.65,207.51L270.71,192.59L271.69,266.76L271.75,265.08L272.06,240.41L272.18,246.18L272.24,202.73L272.43,102.99L273.17,266.76L273.23,265.06L273.35,249.48L273.41,234.84L273.47,246.24L273.66,222.89L273.97,233.4L274.03,187.45L274.09,190.88L274.15,259.51L274.21,259L274.27,266.76L274.64,266.76L274.7,264.61L275.07,194.18L275.13,152.08L275.38,74.4L275.63,193.57L275.69,260.29L276.12,266.76L276.3,252.66L276.36,248.67L276.49,236.85L276.55,195.05L276.86,86.33L277.16,262.72L277.22,266.76L277.59,266.76L277.65,265.08L278.08,157.93L278.15,126.21L278.33,88.45L278.58,203.5L278.64,261.86L279.07,266.76L279.25,251.91L279.31,231.42L279.56,156.06L279.74,196.06L279.81,254.33L279.87,209.64L280.18,266.76L280.54,266.76L280.61,265.84L281.22,86.9L281.4,130.73L281.47,208.04L282.02,266.76L282.27,248.86L282.33,247.76L282.51,150.23L282.57,113.62L282.76,64.8L283,185.61L283.07,259.41L283.5,266.76L283.74,250.76L283.8,248.19L284.17,95.06L284.42,175.3L284.48,224.61L284.97,266.76L285.22,241.42L285.28,236.62L285.71,106.4L285.77,166.73L285.83,203.39L286.45,266.76L286.63,244.51L286.69,236.47L287,146.42L287.06,119.24L287.25,110.98L287.43,225.43L287.49,265.48L287.92,266.76L287.98,266.06L288.05,257.39L288.78,123.69L288.84,263.03L288.91,233.34L289.03,266.76L289.58,252.73L289.64,245.28L289.71,245.64L289.77,225.05L289.95,146.15L290.44,266.42L290.5,266.76L290.93,266.59L291,262.7L291.06,261.72L291.12,245.36L291.49,238.62L291.92,266.76L291.98,266.76L292.41,266.4L292.47,257.17L292.96,167.91L293.21,202.67L293.27,243.71L293.33,217.56L293.39,266.76L293.95,259.41L294.01,254.65L294.19,242.44L294.25,196.39L294.56,86.97L294.87,266.76L294.93,266.76L295.36,266.76L295.42,262.52L295.91,169.77L296.16,256.4L296.22,263.49L296.28,210.05L296.35,266.76L296.96,254.99L297.02,252.14L297.14,244.28L297.21,191.02L297.33,140.26L297.82,266.76L297.88,266.76L298.31,266.76L298.37,259.26L298.68,193.34L298.74,154.94L298.87,124.17L299.17,258.48L299.23,253.18L299.3,266.76L299.79,266.76L299.85,260.11L300.46,76.12L300.65,152.31L300.71,208.72L301.26,266.76L301.45,249.76L301.51,246.66L302,86.62L302.19,205.72L302.25,266.76L302.74,266.76L302.8,259.11L303.11,197.03L303.17,163.18L303.29,100.73L303.72,266.76L303.78,266.76L304.21,266.76L304.28,256.55L304.77,107.64L305.08,186.31L305.14,235.82L305.69,266.76L305.87,238.87L305.94,232.39L306.18,140.37L306.31,209.6L306.37,227.02L306.49,220.43L306.55,259.11L307.17,266.76L307.23,260.96L307.29,241.37L307.78,154.82L308.03,196.4L308.09,242.8L308.64,266.76L308.83,244.96L308.89,240.89L309.07,163.02L309.13,134.34L309.26,105.5L309.5,239.31L309.56,265.19L310.12,266.76L310.18,262.19L310.55,180.45L310.92,257.96L310.98,262.65L311.1,266.76L311.9,227.77L311.96,238L312.21,108.73L312.58,266.76L312.64,266.76L312.7,266.76L313.07,266.76L313.13,260.66L313.68,101.37L313.93,193.45L313.99,245.44L314.54,266.76L314.67,245.51L314.73,239.89L315.16,99.76L315.34,139.04L315.4,178.85L316.02,266.76L316.2,249.3L316.27,246.39L316.33,243.35L316.39,201.98L316.7,96.88L317,266.76L317.06,266.76L317.5,266.76L317.56,261.26L318.05,156.26L318.17,177.75L318.23,225.17L318.97,266.76L319.09,256.63L319.16,253.04L319.22,250.27L319.28,211.87L319.65,78.88L319.71,182.74L319.77,231.54L320.45,266.76L320.57,255.48L320.63,250.51L320.75,244.18L320.82,189.13L320.94,123.88L321.06,144.94L321.12,224.77L321.18,104.76L321.43,266.76L321.8,266.76L321.86,266.76L322.23,248.61L322.29,201.34L322.6,76.98L322.91,266.76L322.97,266.76L323.4,266.76L323.46,261.01L323.95,106.96L324.07,191.64L324.14,238.63L324.87,266.76L324.93,265.26L325,261.86L325.36,200.86L325.67,238.75L325.73,260.34L326.35,266.76L326.41,262.9L326.47,249.34L326.53,255.59L326.66,202.33L326.72,228.97L326.78,178.37L326.96,172.55L327.58,266.76L327.64,266.76L327.82,266.76L327.89,262.65L328.07,225.25L328.62,227.03L328.68,258.89L329.3,266.76L329.36,264.05L329.42,254.5L330.04,100.62L330.16,193.02L330.22,263.55L330.78,266.76L330.84,263.63L330.9,252.59L331.21,163.92L331.27,129.55L331.45,88.56L331.7,246.86L331.76,266.76L332.25,266.76L332.31,263.28L332.74,141.23L332.8,113.67L332.87,102.98L333.05,154.37L333.11,202.95L333.73,266.76L333.85,251.97L333.91,240.83L334.4,127.44L334.53,160.34L334.59,241.65L335.2,266.76L335.33,252.68L335.39,243.62L335.63,166.83L335.69,139.43L335.82,109.85L336,211.15L336.06,258.81L336.68,266.76L336.74,264.74L336.8,253.81L337.29,117.63L337.48,242.19L337.54,250.6L338.15,266.76L338.28,253.83L338.34,244.65L338.77,111.23L338.83,184.97L338.89,236.53L339.01,230.99L339.63,266.76L339.69,265.46L339.75,259.53L340.31,217.8L340.49,252.2L340.55,262.86L341.1,266.76L341.17,264.83L341.23,257.22L341.78,78.72L341.9,120.49L341.97,173.87L342.58,266.76L342.76,250.55L342.83,245.95L342.95,204.44L343.01,161.56L343.19,86.19L343.56,266.76L343.63,266.76L344.06,266.76L344.12,265.23L344.73,88.79L344.85,131.85L344.92,185.36L345.53,266.76L345.72,251.82L345.78,248.66L345.84,246.81L345.9,208.87L346.21,89.11L346.45,266.76L346.51,266.76L346.58,266.76L347.01,266.76L347.07,265.87L347.5,138.61L347.74,183.5L347.81,261.87L348.48,266.76L348.54,266.05L348.61,255.93L348.97,182.82L349.04,220.5L349.1,108.98L349.22,128.94L349.28,162.46L349.96,266.76L350.08,257.29L350.14,252.02L350.33,207.69L350.39,166.89L350.57,97.56L350.88,266.76L350.94,266.76L351,266.76L351.49,266.42L351.56,251.79L351.74,244.41L351.8,210.6L352.11,116.68L352.36,266.76L352.42,266.76L352.48,266.76L352.97,266.05L353.03,261.3L353.34,195.53L353.65,221.76L353.71,254.09L353.77,199.47L353.83,266.76L354.38,266.76L354.45,266.02L354.88,143.75L354.94,96.68L355.06,79.63L355.25,191.59L355.31,266.76L355.92,266.76L355.98,258.3L356.54,84.56L356.72,192.79L356.78,266.76L357.4,266.76L357.46,256.5L358.2,211.68L358.26,266.76L358.87,266.76L358.93,258.43L359.18,193.67L359.24,169.17L359.36,117.89L360.16,266.76L360.23,266.76L360.59,211.98L360.66,200.52L360.72,174.05L361.21,266.76L361.27,266.76L361.82,266.76L361.89,259.76L362.13,211.47L362.19,164.03L362.38,85.49L362.68,266.76L362.75,266.76L362.81,266.76L363.3,266.76L363.36,259.54L363.55,247.7L363.61,257.76L363.67,195.58L363.85,111.19L364.16,266.76L364.34,266.76L364.41,266.76L364.78,266.76L364.84,258.87L365.21,172.92L365.51,221.9L365.57,261.43L366.25,266.76L366.31,260.6L366.37,260.18L366.44,252.82L366.8,245.07L367.23,266.76L367.3,266.76L367.73,266.76L367.79,261.4L368.16,216.58L368.46,261.56L368.53,236.63L368.59,266.76L369.2,266.76L369.26,262.24L369.69,193.75L370,220.89L370.06,266.76L370.68,266.76L370.74,262.56L371.23,157.17L371.48,223.56L371.54,266.76L372.15,266.76L372.21,261.66L372.58,132.34L372.64,100.1L372.71,86.56L372.89,150.29L372.95,236.93L373.63,266.76L373.69,259.59L373.75,249.76L374.06,137.72L374.12,113.04L374.18,101.87L374.37,168.08L374.43,245.6L375.1,266.76L375.17,263.25L375.23,250.65L375.66,112.38L375.84,188.14L375.9,255.22L376.58,266.76L376.64,259.39L376.7,255.09L377.19,124.53L377.32,220.09L377.38,257.13L378.06,266.76L378.12,260.53L378.18,241.77L378.24,241.58L378.3,243.69L378.36,213.76L378.61,108.15L378.92,266.76L378.98,266.76L379.04,266.76L379.53,266.76L379.59,261.21L380.08,131.72L380.27,206.58L380.33,263.04L381.01,266.76L381.07,260.53L381.62,167.81L381.74,218.64L381.81,266.07L382.48,266.76L382.54,261.74L382.97,151.75L383.04,243.85L383.1,201.23L383.34,266.76L383.71,266.76L383.77,266.76L383.96,266.76L384.02,262.71L384.33,186L384.7,261.9L384.76,263.45L385.43,266.76L385.49,263.74L385.56,253.27L385.93,149.45L386.23,266.76L386.29,266.76L386.91,266.76L386.97,264.12L387.59,139.25L387.65,186.89L387.71,266.76L388.38,266.76L388.45,262.66L388.75,176.31L388.81,141.3L388.94,106.62L389.18,266.76L389.25,266.76L389.86,266.76L389.92,262.91L390.35,127.31L390.54,265.16L390.6,258.7L391.34,266.76L391.4,263.09L391.77,199.41L391.95,264.93L392.07,244.73L392.13,266.76L392.81,266.76L392.87,263.76L393.18,174.06L393.3,191.79L393.36,236.09L393.49,243.89L393.55,178.03L394.29,266.76L394.35,263.78L394.41,257.03L394.59,212.41L394.66,183.01L394.84,100.39L395.09,266.76L395.27,266.76L395.33,266.76L395.76,266.76L395.82,265.08L396.13,232.14L396.25,259.49L396.32,259.69L396.38,261.72L396.44,248.96L396.5,227.01L397.24,266.76L397.3,264.23L397.36,257.79L397.79,186.15L397.85,154.87L397.91,136.19L398.04,266.76L398.22,266.76L398.28,266.76L398.71,266.76L398.77,264.42L399.08,178.17L399.14,141.98L399.27,107.39L399.51,266.76L399.57,266.76L400.19,266.76L400.25,264.65L400.56,179.64L400.62,143.77L400.74,108.15L400.99,266.76L401.05,266.76L401.11,266.76L401.66,266.76L401.73,265.25L402.28,110.81L402.34,138.57L402.4,201.02L403.14,266.76L403.2,265.42L403.26,257.71L403.69,104.58L403.82,133.64L403.88,239.16L404.62,266.76L404.68,265.65L404.74,265.46L405.11,240.78L405.35,251.59L405.42,266.76L406.09,266.76L406.15,265.42L406.46,186.76L406.58,208.94L406.64,254.88L406.83,221.51L407.44,266.76L407.51,266.76L407.63,266.4L407.69,257.06L408.06,111.3L408.24,258.11L408.3,262.84L409.04,266.76L409.1,266.39L409.17,260.42L409.53,110.89L409.6,252.89L409.66,246.96L409.84,266.76L410.15,266.76L410.21,266.76L410.58,266.39L410.64,256.56L410.76,238.75L410.83,224.28L411.07,111.55L411.32,266.76L411.5,266.76L411.56,266.76L412.06,266.76L412.12,262.4L412.18,260.15L412.3,262.9L412.36,218.98L412.49,152.58L413.28,266.76L413.35,266.76L413.53,266.76L413.59,262.85L414.02,171.83L414.27,266.76L414.33,266.76L415.01,266.76L415.07,263.75L415.38,232.19L415.74,266.76L415.81,266.76L416.48,266.76L416.54,257.45L416.67,242.86L416.73,220.51L416.79,217.86L416.91,244.6L416.97,187.45L417.77,266.76L417.83,266.76L418.33,210.8L418.45,230.66L418.51,242.69L418.57,236.14L418.7,266.76L419,266.76L419.06,266.76L419.43,266.76L419.49,256.92L419.74,237.64L420.36,266.76L420.42,266.76L420.91,266.76L420.97,263.45L421.46,114.11L421.65,266.76L421.71,266.76L421.77,266.76L422.38,266.76L422.45,259.86L422.88,172.5L423.12,266.76L423.18,266.76L423.86,266.76L423.92,258.47L424.23,203.91L424.6,266.76L424.66,266.76L425.34,266.76L425.4,256.56L425.77,200.33L425.89,202.33L425.95,251.59L426.75,266.76L426.81,266.76L427.18,175.07L427.36,225.46L427.43,256.42L428.22,266.76L428.29,266.76L428.59,186.33L428.66,151.11L428.78,123.8L428.96,266.76L429.02,266.76L429.09,266.76L429.76,266.76L429.82,260.53L430.07,189.72L430.13,157.07L430.25,133.84L430.44,266.76L430.5,266.76L430.56,266.76L431.24,266.76L431.3,262.17L431.36,263.62L431.42,261.57L431.61,263.24L431.67,228.23L431.79,200.89L431.91,266.76L431.98,266.76L432.71,266.76L432.77,259.71L432.96,244.25L433.02,246.57L433.08,240.63L433.21,237L433.94,266.76L434,266.76L434.19,266.76L434.25,260.43L434.62,244.65L434.87,266.76L434.93,266.76L434.99,266.76L435.66,266.76L435.73,264.61L436.09,194.86L436.34,266.76L436.4,266.76L437.14,266.76L437.2,260.58L437.75,192.92L437.82,266.76L438.62,266.76L438.68,262.46L438.98,191.51L439.23,259.24L439.29,266.76L440.09,266.76L440.15,262.06L440.46,250.28L440.77,266.76L440.83,266.76L440.89,266.76L441.57,266.76L441.63,262.55L441.94,148.65L442,123.72L442.98,266.76L443.04,266.76L443.29,233.86L443.35,187.52L443.53,117.05L443.72,266.76L443.96,266.76L444.03,266.76L444.52,266.76L444.58,262.99L445.01,169.44L445.19,266.76L445.26,266.76L445.32,266.76L445.99,266.76L446.05,264.77L446.12,264.57L446.18,259.29L446.36,250.77L446.42,259.83L446.49,257.1L446.55,216.17L447.41,266.76L447.47,266.76L447.71,259.14L447.78,261.03L447.84,214.17L448.64,266.76L448.7,266.76L448.94,266.76L449.01,265.78L449.5,193.87L449.62,266.76L449.74,266.76L449.81,266.76L450.42,266.76L450.48,264.07L450.97,138.32L451.03,198.57L451.1,266.76L451.9,266.76L451.96,264.5L452.33,166.23L452.57,266.76L452.63,266.76L452.69,266.76L453.37,266.76L453.43,265.78L453.86,157.83L453.92,241.36L453.99,263.19L454.79,266.76L454.85,266.76L455.03,255.83L455.09,264.99L455.22,264.59L455.28,265.2L455.34,247.06L456.14,266.76L456.2,266.76L456.38,266.2L456.45,253.98L456.69,222.32L456.81,248.49L456.88,259.51L457.68,266.76L457.74,266.76L457.86,265.79L457.92,265.99L457.98,247.2L458.04,246.41L458.11,235.49L459.09,266.76L459.15,266.76L459.34,265.79L459.4,259.14L459.46,262.67L459.7,244.32L459.77,223.93L460.69,266.76L460.75,266.76L461,258.85L461.06,245.38L461.18,167.67L461.43,266.76L461.61,266.76L461.67,266.76L462.29,266.76L462.35,262.44L462.41,263.1L462.47,247.78L462.72,138.59L462.9,266.76L463.15,266.76L463.21,266.76L463.76,266.76L463.82,260.37L463.88,245.25L464.32,266.76L464.5,266.76L464.56,266.76L465.24,266.76L465.3,258.65L465.36,259.87L465.54,249.41L465.67,259.24L465.73,205.44L466.53,266.76L466.59,266.76L466.9,239.82L466.96,218.4L467.2,192.77L467.76,266.76L467.82,266.76L468.19,266.76L468.25,260.01L468.56,146.59L468.8,266.76L468.86,266.76L468.93,266.76L469.66,266.76L469.73,259.6L469.85,250.43L469.91,263.72L469.97,244.82L470.16,213.26L470.22,259.69L470.28,266.76L471.14,266.76L471.2,260.71L471.51,232.42L471.75,266.76L471.88,266.76L471.94,266.76L472.62,266.76L472.68,260.7L472.8,242.38L472.92,245.5L472.98,175.46L473.05,147.93L473.23,266.76L473.48,266.76L473.54,266.76L474.09,266.76L474.15,260.14L474.34,264.57L474.52,253.32L474.58,210.02L475.38,266.76L475.44,266.76L475.94,257.16L476.06,261.85L476.12,266.76L477.04,266.76L477.1,260.8L477.23,256.04L477.29,245.98L477.41,243.48L477.47,256.94L477.53,179.47L478.33,266.76L478.39,266.76L478.7,256.24L478.76,237.98L478.83,245.78L478.95,245.45L479.01,179.26L479.81,266.76L479.87,266.76L480.18,244.98L480.24,245.81L480.3,217.69L480.42,191.74L481.16,266.76L481.22,266.76L481.47,266.76L481.53,260.98L481.59,260.57L481.65,248.65L481.78,229.66L481.84,251.33L481.9,259.95L481.96,256.22L482.02,266.76L482.51,266.76L482.58,266.76L482.94,266.76L483.01,264.96L483.44,252.44L483.5,266.76L483.68,266.76L483.74,266.76L484.42,266.76L484.48,260.58L484.79,239.98L484.97,266.76L485.16,266.76L485.22,266.76L485.9,266.76L485.96,261.54L486.2,252.91L486.26,253.52L486.33,265.59L486.39,253.96L486.45,266.76L487.06,266.76L487.13,266.76L487.37,266.76L487.43,263.49L487.49,263.71L487.56,259.43L487.8,253.47L488.35,266.76L488.42,266.76L488.85,266.76L488.91,262.61L489.28,244.55L489.4,266.76L489.58,266.76L489.65,266.76L490.32,266.76L490.38,263.88L490.57,232.36L490.88,266.76L490.94,266.76L491,266.76L491.8,266.76L491.86,263.02L492.11,235.99L492.35,266.76L492.54,266.76L492.6,266.76L493.27,266.76L493.33,263.85L493.46,251.1L493.83,266.76L493.95,266.76L494.01,266.76L494.75,266.76L494.81,262.74L494.99,239.17L495.3,266.76L495.49,266.76L495.55,266.76L496.22,266.76L496.29,263.18L496.41,260.88L496.47,240.04L496.59,244.08L496.65,259.33L497.52,266.76L497.58,266.76L497.82,259.11L497.88,247.06L497.95,243.53L498.13,259.8L498.19,247.13L498.25,266.76L499.18,266.76L499.24,264.23L499.42,238.41L499.73,266.76L499.91,266.76L499.97,266.76L500.65,266.76L500.71,264.26L501.08,212.34L501.14,219.59L501.2,266.76L502.13,266.76L502.19,263.74L502.62,201.85L502.68,266.76L503.6,266.76L503.66,263.71L503.97,232.94L504.16,266.76L504.34,266.76L504.4,266.76L505.08,266.76L505.14,264.2L505.57,183.89L505.63,266.76L506.55,266.76L506.62,264.15L506.8,219.07L507.05,229.82L507.11,266.76L508.03,266.76L508.09,265.95L508.28,239.31L508.58,266.76L508.64,266.76L508.71,266.76L509.5,266.76L509.57,264.19L510,188.51L510.06,266.76L510.12,266.76L510.18,266.76L510.98,266.76L511.04,264.4L511.47,195.69L511.53,266.76L512.46,266.76L512.52,265.28L512.95,190.24L513.01,266.76L513.19,266.76L513.26,266.76L513.93,266.76L513.99,265.49L514.24,183.44L514.42,242.73L514.48,266.76L515.41,266.76L515.47,265.97L515.65,223.44L515.96,266.76L516.08,266.76L516.14,266.76L516.88,266.76L516.94,265.98L517.01,254.78L517.44,266.76L517.68,266.76L517.74,266.76L518.36,266.76L518.42,265.99L518.48,256.16L518.91,266.76L519.16,266.76L519.22,266.76L519.83,266.76L519.9,265.53L520.33,192.55L520.39,266.76L521.37,266.13L521.43,257.45L521.62,241.98L521.86,266.76L521.92,266.76L522.85,266.34L522.91,265.47L523.15,153.24L523.34,266.76L523.4,266.76L523.46,266.76L524.26,266.76L524.32,265.43L524.57,177.98L524.63,151.61L525.55,266.76L525.61,266.76L525.8,265.45L525.86,256.6L526.04,191.6L526.29,266.76L526.41,266.76L526.47,266.76L527.27,266.16L527.33,251.92L528.13,266.76L528.2,266.76L528.69,266.76L528.75,265.47L529.12,154.72L529.18,180.07L529.24,266.76L530.22,266.38L530.29,255.19L530.41,260.42L530.53,255.62L530.59,203.87L531.45,266.76L531.52,266.76L531.7,266.18L531.76,252.61L531.95,233.65L532.19,266.76L532.38,266.76L532.44,266.76L533.18,266.76L533.24,263.5L533.42,256.61L534.1,266.76L534.16,266.76L534.59,266.76L534.65,265.99L534.96,236.83L535.02,260.94L535.82,266.76L535.88,266.76L536.13,266.38L536.19,253.95L536.56,249.33L537.05,266.76L537.11,266.76L537.6,266.76L537.66,260.91L537.85,242.68L538.09,266.76L538.28,266.76L538.34,266.76L539.02,266.76L539.08,265.77L539.45,158.13L539.51,180.91L539.57,266.76L540,266.76" style="vector-effect: none; fill: none; stroke: rgb(65, 105, 225); stroke-opacity: 1; stroke-width: 1px; opacity: 1;"/></g><g class="points"/><g class="text"/></g></g></g></g><g class="zerolinelayer-above"/><path class="xlines-above crisp" d="M0,0" style="fill: none;"/><path class="ylines-above crisp" d="M0,0" style="fill: none;"/><g class="overlines-above"/><g class="xaxislayer-above"><g class="xtick"><text text-anchor="middle" x="0" y="393.79999999999995" transform="translate(80,0)" style="font-family: 'Open Sans', verdana, arial, sans-serif; font-size: 12px; fill: rgb(42, 63, 95); fill-opacity: 1; white-space: pre;">Jan 2024</text></g><g class="xtick"><text text-anchor="middle" x="0" y="393.79999999999995" style="font-family: 'Open Sans', verdana, arial, sans-serif; font-size: 12px; fill: rgb(42, 63, 95); fill-opacity: 1; white-space: pre;" transform="translate(168.53,0)">Mar 2024</text></g><g class="xtick"><text text-anchor="middle" x="0" y="393.79999999999995" style="font-family: 'Open Sans', verdana, arial, sans-serif; font-size: 12px; fill: rgb(42, 63, 95); fill-opacity: 1; white-space: pre;" transform="translate(258.53999999999996,0)">May 2024</text></g><g class="xtick"><text text-anchor="middle" x="0" y="393.79999999999995" style="font-family: 'Open Sans', verdana, arial, sans-serif; font-size: 12px; fill: rgb(42, 63, 95); fill-opacity: 1; white-space: pre;" transform="translate(348.56,0)">Jul 2024</text></g><g class="xtick"><text text-anchor="middle" x="0" y="393.79999999999995" style="font-family: 'Open Sans', verdana, arial, sans-serif; font-size: 12px; fill: rgb(42, 63, 95); fill-opacity: 1; white-space: pre;" transform="translate(440.04,0)">Sep 2024</text></g><g class="xtick"><text text-anchor="middle" x="0" y="393.79999999999995" style="font-family: 'Open Sans', verdana, arial, sans-serif; font-size: 12px; fill: rgb(42, 63, 95); fill-opacity: 1; white-space: pre;" transform="translate(530.05,0)">Nov 2024</text></g></g><g class="yaxislayer-above"><g class="ytick"><text text-anchor="end" x="79" y="4.199999999999999" transform="translate(0,366.76)" style="font-family: 'Open Sans', verdana, arial, sans-serif; font-size: 12px; fill: rgb(42, 63, 95); fill-opacity: 1; white-space: pre;">0</text></g><g class="ytick"><text text-anchor="end" x="79" y="4.199999999999999" style="font-family: 'Open Sans', verdana, arial, sans-serif; font-size: 12px; fill: rgb(42, 63, 95); fill-opacity: 1; white-space: pre;" transform="translate(0,308.86)">100</text></g><g class="ytick"><text text-anchor="end" x="79" y="4.199999999999999" style="font-family: 'Open Sans', verdana, arial, sans-serif; font-size: 12px; fill: rgb(42, 63, 95); fill-opacity: 1; white-space: pre;" transform="translate(0,250.96)">200</text></g><g class="ytick"><text text-anchor="end" x="79" y="4.199999999999999" style="font-family: 'Open Sans', verdana, arial, sans-serif; font-size: 12px; fill: rgb(42, 63, 95); fill-opacity: 1; white-space: pre;" transform="translate(0,193.06)">300</text></g><g class="ytick"><text text-anchor="end" x="79" y="4.199999999999999" style="font-family: 'Open Sans', verdana, arial, sans-serif; font-size: 12px; fill: rgb(42, 63, 95); fill-opacity: 1; white-space: pre;" transform="translate(0,135.17000000000002)">400</text></g></g><g class="overaxes-above"/></g><g class="subplot x2y2"><g class="layer-subplot"><g class="shapelayer"/><g class="imagelayer"/></g><g class="minor-gridlayer"><g class="x2"/><g class="y2"/></g><g class="gridlayer"><g class="x2"/><g class="y2"><path class="y2grid crisp" transform="translate(0,556.01)" d="M80,0h540" style="stroke: rgb(235, 240, 248); stroke-opacity: 1; stroke-width: 1px;"/><path class="y2grid crisp" transform="translate(0,492.00999999999993)" d="M80,0h540" style="stroke: rgb(235, 240, 248); stroke-opacity: 1; stroke-width: 1px;"/></g></g><g class="zerolinelayer"><path class="y2zl zl crisp" transform="translate(0,620)" d="M80,0h540" style="stroke: rgb(235, 240, 248); stroke-opacity: 1; stroke-width: 2px;"/></g><g class="layer-between"><g class="shapelayer"/><g class="imagelayer"/></g><path class="xlines-below"/><path class="ylines-below"/><g class="overlines-below"/><g class="xaxislayer-below"/><g class="yaxislayer-below"/><g class="overaxes-below"/><g class="overplot"><g class="x2y2" transform="translate(80,432.79999999999995)" clip-path="url(#clip47e3d6x2y2plot)"><g class="barlayer mlayer"><g class="trace bars" style="opacity: 1;"><g class="points"><g class="point"><path d="M4.5,187.2V152.55H40.5V187.2Z" style="vector-effect: none; opacity: 1; stroke-width: 0.5px; fill: rgb(65, 105, 225); fill-opacity: 1; stroke: rgb(255, 255, 255); stroke-opacity: 1;"/><text class="bartext bartext-inside" text-anchor="middle" data-notex="1" x="0" y="0" style="font-family: 'Open Sans', verdana, arial, sans-serif; font-size: 12px; fill: rgb(255, 255, 255); fill-opacity: 1; white-space: pre;" transform="translate(22.3212890625,167.55)">10.8</text></g><g class="point"><path d="M49.5,187.2V126.98H85.5V187.2Z" style="vector-effect: none; opacity: 1; stroke-width: 0.5px; fill: rgb(65, 105, 225); fill-opacity: 1; stroke: rgb(255, 255, 255); stroke-opacity: 1;"/><text class="bartext bartext-inside" text-anchor="middle" data-notex="1" x="0" y="0" style="font-family: 'Open Sans', verdana, arial, sans-serif; font-size: 12px; fill: rgb(255, 255, 255); fill-opacity: 1; white-space: pre;" transform="translate(67.3212890625,141.98000000000002)">18.8</text></g><g class="point"><path d="M94.5,187.2V58.32H130.5V187.2Z" style="vector-effect: none; opacity: 1; stroke-width: 0.5px; fill: rgb(65, 105, 225); fill-opacity: 1; stroke: rgb(255, 255, 255); stroke-opacity: 1;"/><text class="bartext bartext-inside" text-anchor="middle" data-notex="1" x="0" y="0" style="font-family: 'Open Sans', verdana, arial, sans-serif; font-size: 12px; fill: rgb(255, 255, 255); fill-opacity: 1; white-space: pre;" transform="translate(112.5,73.32)">40.3</text></g><g class="point"><path d="M139.5,187.2V18.86H175.5V187.2Z" style="vector-effect: none; opacity: 1; stroke-width: 0.5px; fill: rgb(65, 105, 225); fill-opacity: 1; stroke: rgb(255, 255, 255); stroke-opacity: 1;"/><text class="bartext bartext-inside" text-anchor="middle" data-notex="1" x="0" y="0" style="font-family: 'Open Sans', verdana, arial, sans-serif; font-size: 12px; fill: rgb(255, 255, 255); fill-opacity: 1; white-space: pre;" transform="translate(157.3212890625,33.86)">52.6</text></g><g class="point"><path d="M184.5,187.2V10.19H220.5V187.2Z" style="vector-effect: none; opacity: 1; stroke-width: 0.5px; fill: rgb(65, 105, 225); fill-opacity: 1; stroke: rgb(255, 255, 255); stroke-opacity: 1;"/><text class="bartext bartext-inside" text-anchor="middle" data-notex="1" x="0" y="0" style="font-family: 'Open Sans', verdana, arial, sans-serif; font-size: 12px; fill: rgb(255, 255, 255); fill-opacity: 1; white-space: pre;" transform="translate(202.5,25.189999999999998)">55.3</text></g><g class="point"><path d="M229.5,187.2V17.9H265.5V187.2Z" style="vector-effect: none; opacity: 1; stroke-width: 0.5px; fill: rgb(65, 105, 225); fill-opacity: 1; stroke: rgb(255, 255, 255); stroke-opacity: 1;"/><text class="bartext bartext-inside" text-anchor="middle" data-notex="1" x="0" y="0" style="font-family: 'Open Sans', verdana, arial, sans-serif; font-size: 12px; fill: rgb(255, 255, 255); fill-opacity: 1; white-space: pre;" transform="translate(247.3212890625,32.9)">52.9</text></g><g class="point"><path d="M274.5,187.2V9.36H310.5V187.2Z" style="vector-effect: none; opacity: 1; stroke-width: 0.5px; fill: rgb(65, 105, 225); fill-opacity: 1; stroke: rgb(255, 255, 255); stroke-opacity: 1;"/><text class="bartext bartext-inside" text-anchor="middle" data-notex="1" x="0" y="0" style="font-family: 'Open Sans', verdana, arial, sans-serif; font-size: 12px; fill: rgb(255, 255, 255); fill-opacity: 1; white-space: pre;" transform="translate(292.3212890625,24.36)">55.6</text></g><g class="point"><path d="M319.5,187.2V26.77H355.5V187.2Z" style="vector-effect: none; opacity: 1; stroke-width: 0.5px; fill: rgb(65, 105, 225); fill-opacity: 1; stroke: rgb(255, 255, 255); stroke-opacity: 1;"/><text class="bartext bartext-inside" text-anchor="middle" data-notex="1" x="0" y="0" style="font-family: 'Open Sans', verdana, arial, sans-serif; font-size: 12px; fill: rgb(255, 255, 255); fill-opacity: 1; white-space: pre;" transform="translate(337.5,41.769999999999996)">50.1</text></g><g class="point"><path d="M364.5,187.2V70.35H400.5V187.2Z" style="vector-effect: none; opacity: 1; stroke-width: 0.5px; fill: rgb(65, 105, 225); fill-opacity: 1; stroke: rgb(255, 255, 255); stroke-opacity: 1;"/><text class="bartext bartext-inside" text-anchor="middle" data-notex="1" x="0" y="0" style="font-family: 'Open Sans', verdana, arial, sans-serif; font-size: 12px; fill: rgb(255, 255, 255); fill-opacity: 1; white-space: pre;" transform="translate(382.3212890625,85.35)">36.5</text></g><g class="point"><path d="M409.5,187.2V122.82H445.5V187.2Z" style="vector-effect: none; opacity: 1; stroke-width: 0.5px; fill: rgb(65, 105, 225); fill-opacity: 1; stroke: rgb(255, 255, 255); stroke-opacity: 1;"/><text class="bartext bartext-inside" text-anchor="middle" data-notex="1" x="0" y="0" style="font-family: 'Open Sans', verdana, arial, sans-serif; font-size: 12px; fill: rgb(255, 255, 255); fill-opacity: 1; white-space: pre;" transform="translate(427.5,137.82)">20.1</text></g><g class="point"><path d="M454.5,187.2V154.24H490.5V187.2Z" style="vector-effect: none; opacity: 1; stroke-width: 0.5px; fill: rgb(65, 105, 225); fill-opacity: 1; stroke: rgb(255, 255, 255); stroke-opacity: 1;"/><text class="bartext bartext-inside" text-anchor="middle" data-notex="1" x="0" y="0" style="font-family: 'Open Sans', verdana, arial, sans-serif; font-size: 12px; fill: rgb(255, 255, 255); fill-opacity: 1; white-space: pre;" transform="translate(472.5,169.24)">10.3</text></g><g class="point"><path d="M499.5,187.2V157.95H535.5V187.2Z" style="vector-effect: none; opacity: 1; stroke-width: 0.5px; fill: rgb(65, 105, 225); fill-opacity: 1; stroke: rgb(255, 255, 255); stroke-opacity: 1;"/><text class="bartext bartext-inside" text-anchor="middle" data-notex="1" x="0" y="0" style="font-family: 'Open Sans', verdana, arial, sans-serif; font-size: 12px; fill: rgb(255, 255, 255); fill-opacity: 1; white-space: pre;" transform="translate(517.5,172.95)">9.1</text></g></g></g></g></g></g><g class="zerolinelayer-above"/><path class="xlines-above crisp" d="M0,0" style="fill: none;"/><path class="ylines-above crisp" d="M0,0" style="fill: none;"/><g class="overlines-above"/><g class="xaxislayer-above"><g class="x2tick"><text text-anchor="middle" x="0" y="633" transform="translate(102.5,0)" style="font-family: 'Open Sans', verdana, arial, sans-serif; font-size: 12px; fill: rgb(42, 63, 95); fill-opacity: 1; white-space: pre;">Jan</text></g><g class="x2tick"><text text-anchor="middle" x="0" y="633" transform="translate(147.5,0)" style="font-family: 'Open Sans', verdana, arial, sans-serif; font-size: 12px; fill: rgb(42, 63, 95); fill-opacity: 1; white-space: pre;">Feb</text></g><g class="x2tick"><text text-anchor="middle" x="0" y="633" transform="translate(192.5,0)" style="font-family: 'Open Sans', verdana, arial, sans-serif; font-size: 12px; fill: rgb(42, 63, 95); fill-opacity: 1; white-space: pre;">Mar</text></g><g class="x2tick"><text text-anchor="middle" x="0" y="633" transform="translate(237.5,0)" style="font-family: 'Open Sans', verdana, arial, sans-serif; font-size: 12px; fill: rgb(42, 63, 95); fill-opacity: 1; white-space: pre;">Apr</text></g><g class="x2tick"><text text-anchor="middle" x="0" y="633" transform="translate(282.5,0)" style="font-family: 'Open Sans', verdana, arial, sans-serif; font-size: 12px; fill: rgb(42, 63, 95); fill-opacity: 1; white-space: pre;">May</text></g><g class="x2tick"><text text-anchor="middle" x="0" y="633" transform="translate(327.5,0)" style="font-family: 'Open Sans', verdana, arial, sans-serif; font-size: 12px; fill: rgb(42, 63, 95); fill-opacity: 1; white-space: pre;">Jun</text></g><g class="x2tick"><text text-anchor="middle" x="0" y="633" transform="translate(372.5,0)" style="font-family: 'Open Sans', verdana, arial, sans-serif; font-size: 12px; fill: rgb(42, 63, 95); fill-opacity: 1; white-space: pre;">Jul</text></g><g class="x2tick"><text text-anchor="middle" x="0" y="633" transform="translate(417.5,0)" style="font-family: 'Open Sans', verdana, arial, sans-serif; font-size: 12px; fill: rgb(42, 63, 95); fill-opacity: 1; white-space: pre;">Aug</text></g><g class="x2tick"><text text-anchor="middle" x="0" y="633" transform="translate(462.5,0)" style="font-family: 'Open Sans', verdana, arial, sans-serif; font-size: 12px; fill: rgb(42, 63, 95); fill-opacity: 1; white-space: pre;">Sep</text></g><g class="x2tick"><text text-anchor="middle" x="0" y="633" transform="translate(507.5,0)" style="font-family: 'Open Sans', verdana, arial, sans-serif; font-size: 12px; fill: rgb(42, 63, 95); fill-opacity: 1; white-space: pre;">Oct</text></g><g class="x2tick"><text text-anchor="middle" x="0" y="633" transform="translate(552.5,0)" style="font-family: 'Open Sans', verdana, arial, sans-serif; font-size: 12px; fill: rgb(42, 63, 95); fill-opacity: 1; white-space: pre;">Nov</text></g><g class="x2tick"><text text-anchor="middle" x="0" y="633" transform="translate(597.5,0)" style="font-family: 'Open Sans', verdana, arial, sans-serif; font-size: 12px; fill: rgb(42, 63, 95); fill-opacity: 1; white-space: pre;">Dec</text></g></g><g class="yaxislayer-above"><g class="y2tick"><text text-anchor="end" x="79" y="4.199999999999999" transform="translate(0,620)" style="font-family: 'Open Sans', verdana, arial, sans-serif; font-size: 12px; fill: rgb(42, 63, 95); fill-opacity: 1; white-space: pre;">0</text></g><g class="y2tick"><text text-anchor="end" x="79" y="4.199999999999999" style="font-family: 'Open Sans', verdana, arial, sans-serif; font-size: 12px; fill: rgb(42, 63, 95); fill-opacity: 1; white-space: pre;" transform="translate(0,556.01)">20</text></g><g class="y2tick"><text text-anchor="end" x="79" y="4.199999999999999" style="font-family: 'Open Sans', verdana, arial, sans-serif; font-size: 12px; fill: rgb(42, 63, 95); fill-opacity: 1; white-space: pre;" transform="translate(0,492.00999999999993)">40</text></g></g><g class="overaxes-above"/></g></g><g class="polarlayer"/><g class="smithlayer"/><g class="ternarylayer"/><g class="geolayer"/><g class="funnelarealayer"/><g class="pielayer"/><g class="iciclelayer"/><g class="treemaplayer"/><g class="sunburstlayer"/><g class="glimages"/><defs id="topdefs-47e3d6"><g class="clips"/></defs><g class="layer-above"><g class="imagelayer"/><g class="shapelayer"/></g><g class="infolayer"><g class="g-gtitle"><text class="gtitle" x="35" y="50" text-anchor="start" dy="0em" style="opacity: 1; font-family: 'Open Sans', verdana, arial, sans-serif; font-size: 17px; fill: rgb(42, 63, 95); fill-opacity: 1; white-space: pre;">DC Output — LONGi LR6-72HBD-385M | Moosonee ON</text></g><g class="g-xtitle"/><g class="g-x2title"><text class="x2title" x="350" y="660.3" text-anchor="middle" style="opacity: 1; font-family: 'Open Sans', verdana, arial, sans-serif; font-size: 14px; fill: rgb(42, 63, 95); fill-opacity: 1; white-space: pre;">Month</text></g><g class="g-ytitle"><text class="ytitle" transform="rotate(-90,36.709375,240.39999999999998)" x="36.709375" y="240.39999999999998" text-anchor="middle" style="opacity: 1; font-family: 'Open Sans', verdana, arial, sans-serif; font-size: 14px; fill: rgb(42, 63, 95); fill-opacity: 1; white-space: pre;">Energy (Wh)</text></g><g class="g-y2title"><text class="y2title" transform="rotate(-90,44.334375,526.4)" x="44.334375" y="526.4" text-anchor="middle" style="opacity: 1; font-family: 'Open Sans', verdana, arial, sans-serif; font-size: 14px; fill: rgb(42, 63, 95); fill-opacity: 1; white-space: pre;">Energy (kWh)</text></g><g class="annotation" data-index="0" style="opacity: 1;"><g class="annotation-text-g" transform="rotate(0,350,88.5)"><g class="cursor-pointer" transform="translate(282,77)"><rect class="bg" x="0.5" y="0.5" width="135" height="22" style="stroke-width: 1px; stroke: rgb(0, 0, 0); stroke-opacity: 0; fill: rgb(0, 0, 0); fill-opacity: 0;"/><text class="annotation-text" text-anchor="middle" x="67.4921875" y="18" style="font-family: 'Open Sans', verdana, arial, sans-serif; font-size: 16px; fill: rgb(42, 63, 95); fill-opacity: 1; white-space: pre;">Daily DC Energy</text></g></g></g><g class="annotation" data-index="1" style="opacity: 1;"><g class="annotation-text-g" transform="rotate(0,350,421.29999999999995)"><g class="cursor-pointer" transform="translate(271,410)"><rect class="bg" x="0.5" y="0.5" width="158" height="22" style="stroke-width: 1px; stroke: rgb(0, 0, 0); stroke-opacity: 0; fill: rgb(0, 0, 0); fill-opacity: 0;"/><text class="annotation-text" text-anchor="middle" x="79.203125" y="18" style="font-family: 'Open Sans', verdana, arial, sans-serif; font-size: 16px; fill: rgb(42, 63, 95); fill-opacity: 1; white-space: pre;">Monthly DC Energy</text></g></g></g><g class="annotation" data-index="2" style="opacity: 1;"><g class="annotation-text-g" transform="rotate(0,295.03999999999996,109.5)"><g class="cursor-pointer" transform="translate(251,100)"><rect class="bg" x="0.5" y="0.5" width="88" height="18" style="stroke-width: 1px; stroke: rgb(0, 0, 0); stroke-opacity: 0; fill: rgb(0, 0, 0); fill-opacity: 0;"/><text class="annotation-text" text-anchor="middle" x="44.3203125" y="14" style="font-family: 'Open Sans', verdana, arial, sans-serif; font-size: 12px; fill: rgb(178, 34, 34); fill-opacity: 1; white-space: pre;">Peak: 375 Wh</text></g></g><g class="annotation-arrow-g" style="opacity: 1;"><path d="M286.03999999999996,118.5L255.04,149.5" style="stroke-width: 1px; stroke: rgb(178, 34, 34); stroke-opacity: 1; stroke-dasharray: 0px, 0px, 42.5406px, 43.8406px;"/><path d="M-3.7,-2.5V2.5L1.3,0Z" transform="translate(255.959228515625,148.5807647705078)rotate(135)" style="fill: rgb(178, 34, 34); stroke-width: 0;"/></g></g></g></svg>