<svg class="main-svg" xmlns="http://www.w3.org/2000/svg" xmlns:xlink="http://www.w3.org/1999/xlink" width="700" height="650" style="" viewBox="0 0 700 650"><rect x="0" y="0" width="700" height="650" style="fill: rgb(255, 255, 255); fill-opacity: 1;"/><defs id="defs-138cac"><g class="clips"><clipPath id="clip138cacxyplot" class="plotclip"><rect width="540" height="248.16000000000003"/></clipPath><clipPath id="clip138cacx2y2plot" class="plotclip"><rect width="540" height="165.44000000000003"/></clipPath><clipPath class="axesclip" id="clip138cacx"><rect x="80" y="0" width="540" height="650"/></clipPath><clipPath class="axesclip" id="clip138cacy"><rect x="0" y="100" width="700" height="248.16000000000003"/></clipPath><clipPath class="axesclip" id="clip138cacxy"><rect x="80" y="100" width="540" height="248.16000000000003"/></clipPath><clipPath class="axesclip" id="clip138cacy2"><rect x="0" y="404.55999999999995" width="700" height="165.44000000000003"/></clipPath><clipPath class="axesclip" id="clip138cacxy2"><rect x="80" y="404.55999999999995" width="540" height="165.44000000000003"/></clipPath><clipPath class="axesclip" id="clip138cacx2"><rect x="80" y="0" width="540" height="650"/></clipPath><clipPath class="axesclip" id="clip138cacx2y"><rect x="80" y="100" width="540" height="248.16000000000003"/></clipPath><clipPath class="axesclip" id="clip138cacx2y2"><rect x="80" y="404.55999999999995" width="540" height="165.44000000000003"/></clipPath></g><g class="gradients"/><g class="patterns"/></defs><g class="bglayer"/><g class="layer-below"><g class="imagelayer"/><g class="shapelayer"/></g><g class="cartesianlayer"><g class="subplot xy"><g class="layer-subplot"><g class="shapelayer"/><g class="imagelayer"/></g><g class="minor-gridlayer"><g class="x"/><g class="y"/></g><g class="gridlayer"><g class="x"><path class="xgrid crisp" transform="translate(167.53,0)" d="M0,100v248.16000000000003" style="stroke: rgb(235, 240, 248); stroke-opacity: 1; stroke-width: 1px;"/><path class="xgrid crisp" transform="translate(258.02,0)" d="M0,100v248.16000000000003" style="stroke: rgb(235, 240, 248); stroke-opacity: 1; stroke-width: 1px;"/><path class="xgrid crisp" transform="translate(348.52,0)" d="M0,100v248.16000000000003" style="stroke: rgb(235, 240, 248); stroke-opacity: 1; stroke-width: 1px;"/><path class="xgrid crisp" transform="translate(440.49,0)" d="M0,100v248.16000000000003" style="stroke: rgb(235, 240, 248); stroke-opacity: 1; stroke-width: 1px;"/><path class="xgrid crisp" transform="translate(530.99,0)" d="M0,100v248.16000000000003" style="stroke: rgb(235, 240, 248); stroke-opacity: 1; stroke-width: 1px;"/></g><g class="y"><path class="ygrid crisp" transform="translate(0,267.84000000000003)" d="M80,0h540" style="stroke: rgb(235, 240, 248); stroke-opacity: 1; stroke-width: 1px;"/><path class="ygrid crisp" transform="translate(0,198.42000000000002)" d="M80,0h540" style="stroke: rgb(235, 240, 248); stroke-opacity: 1; stroke-width: 1px;"/><path class="ygrid crisp" transform="translate(0,129)" d="M80,0h540" style="stroke: rgb(235, 240, 248); stroke-opacity: 1; stroke-width: 1px;"/></g></g><g class="zerolinelayer"><path class="yzl zl crisp" transform="translate(0,337.25)" d="M80,0h540" style="stroke: rgb(235, 240, 248); stroke-opacity: 1; stroke-width: 2px;"/></g><g class="layer-between"><g class="shapelayer"/><g class="imagelayer"/></g><path class="xlines-below"/><path class="ylines-below"/><g class="overlines-below"/><g class="xaxislayer-below"/><g class="yaxislayer-below"/><g class="overaxes-below"/><g class="overplot"><g class="xy" transform="translate(80,100)" clip-path="url(#clip138cacxyplot)"><g class="scatterlayer mlayer"><g class="trace scatter tracebbdaa0" style="stroke-miterlimit: 2; opacity: 1;"><g class="fills"/><g class="errorbars"/><g class="lines"><path class="js-line" d="M0,232.93L1.48,208.4L2.97,108.55L4.45,96.7L5.93,193.36L7.42,215.45L8.9,192.11L11.87,231.3L13.35,233.18L14.84,232.49L16.32,234.47L17.8,232.97L19.29,229.53L20.77,211.18L22.25,218.17L23.74,212.52L25.22,154.18L26.7,217.53L28.19,231.13L29.67,228.8L31.15,231.22L32.64,230.35L34.12,209.86L35.6,208.59L37.09,198.19L38.57,49.5L40.05,228.07L41.54,218.98L43.02,233.24L45.99,223.16L47.47,225.62L48.96,208.57L50.44,206.82L51.92,183.64L53.41,229.69L54.89,218.85L56.37,227.12L57.86,233.59L59.34,232.49L60.82,231.92L62.31,233.45L63.79,231.97L65.27,225.02L66.76,222.21L68.24,228.33L69.73,171.76L71.21,184.76L72.69,221.21L74.18,231.9L75.66,227.87L77.14,226.09L78.63,230.92L80.11,192.07L81.59,232.92L83.08,234.39L84.56,228.77L86.04,233.58L90.49,235.75L91.98,234.72L94.95,230.33L96.43,230.76L99.4,235.46L100.88,234.09L102.36,230.2L103.85,234.55L105.33,232.52L106.81,234.11L108.3,233.99L109.78,231.71L112.75,235.55L114.23,235.28L115.71,232.83L117.2,233L118.68,233.16L120.16,234.96L121.65,232.75L123.13,234.33L124.62,234.88L126.1,231.73L127.58,234.51L129.07,235.28L130.55,234.37L132.03,228.91L133.52,228.94L135,220.02L136.48,204.54L137.97,229.86L139.45,233.08L140.93,216.95L142.42,216.43L143.9,229.04L145.38,219.21L146.87,226.59L148.35,233.6L149.84,230.25L151.32,227.7L152.8,231.42L154.29,155.27L155.77,164.33L157.25,221.73L158.74,211.8L161.7,227.39L163.19,210.68L164.67,224.19L166.15,223.22L167.64,232.4L169.12,232.56L170.6,232.87L172.09,221.33L173.57,212.99L175.05,192L176.54,231.9L178.02,227.09L180.99,222.4L182.47,225.67L183.96,205.76L185.44,206.99L188.41,228.97L189.89,187.21L191.37,209.83L192.86,212.46L194.34,231.76L195.82,201.16L197.31,202.58L198.79,232.35L200.27,232.52L201.76,210.14L203.24,201.31L204.73,215.6L207.69,231.65L209.18,232.9L210.66,229.32L212.14,229.94L215.11,230.52L216.59,227.19L218.08,231.09L219.56,213.94L221.04,221.81L222.53,207.09L224.01,188.24L225.49,223.63L226.98,217.3L228.46,220.79L229.95,223.36L231.43,231.1L232.91,230.61L234.4,223.74L235.88,231.57L237.36,229.6L238.85,226.36L240.33,230.79L241.81,227.66L243.3,232.11L244.78,228.02L246.26,228.07L247.75,207.77L249.23,223.63L250.71,229.14L252.2,224.36L253.68,215.49L255.16,218.37L256.65,219.55L258.13,186.19L259.62,232.34L261.1,229.16L262.58,221.87L264.07,223L265.55,228.56L267.03,222.36L268.52,229.38L270,213.66L271.48,228.56L272.97,216.17L274.45,211.99L275.93,228.01L277.42,232.34L278.9,232.8L280.38,233.03L281.87,227.37L284.84,224.44L286.32,91.8L287.8,217.6L289.29,233.99L290.77,231.94L292.25,232.51L293.74,197.95L295.22,232.86L296.7,232.84L298.19,225.99L299.67,224.58L301.15,218.57L302.64,232.52L304.12,232.73L305.6,172.63L307.09,227.9L308.57,231.21L310.05,228.46L311.54,221.3L313.02,230.54L314.51,228.84L315.99,219.74L317.47,231.62L318.96,230.42L320.44,230.59L321.92,232.68L323.41,216.93L324.89,217.82L326.37,218.49L327.86,193.26L329.34,218.52L330.82,184.43L333.79,222.25L335.27,191.42L338.24,231.47L339.73,232.47L341.21,232.39L342.69,233.08L344.18,233.71L345.66,228.04L347.14,223.98L348.63,195.31L350.11,230.12L351.59,220.24L353.08,231.87L354.56,229.11L356.04,231.98L357.53,231.54L359.01,234.35L360.49,218.54L361.98,227.55L363.46,229.99L364.95,195.97L366.43,205.73L367.91,199.84L369.4,228.62L370.88,222.1L372.36,229.31L373.85,229.3L375.33,232.93L376.81,210.16L378.3,233.5L381.26,232.95L382.75,218L384.23,215.04L385.71,228.75L387.2,232.9L388.68,233.13L390.16,222.12L391.65,233.16L394.62,233.71L396.1,195.6L397.58,219.7L399.07,211.6L400.55,198.04L402.03,229.32L403.52,233.83L405,231.67L406.48,160.23L407.97,227.29L409.45,221.71L410.93,168.57L412.42,191.66L413.9,230.48L415.38,230.91L416.87,191.16L418.35,204.28L419.84,232.91L421.32,213.98L422.8,182.03L424.29,192.68L425.77,226.65L427.25,232.78L428.74,213.39L430.22,229.33L431.7,225.4L434.67,230.49L436.15,231.9L437.64,230.98L439.12,223.7L440.6,231.96L442.09,231.12L443.57,229.42L445.05,231.55L446.54,234.45L448.02,234.61L449.51,225.75L450.99,226.85L452.47,182.62L453.96,164.14L455.44,193.67L456.92,204.98L458.41,208.07L459.89,224.89L461.37,212.29L462.86,227.23L465.82,229.84L467.31,234.13L468.79,231.47L470.27,232.29L471.76,224.05L473.24,196.24L474.73,201.23L476.21,209.1L477.69,228.09L479.18,216.04L480.66,228.1L482.14,203.42L483.63,232.08L485.11,218.82L486.59,233.15L488.08,209.96L489.56,208.41L491.04,141.83L492.53,217.54L494.01,228.31L495.49,233.85L496.98,235.42L499.95,230.65L501.43,233.76L502.91,232.31L504.4,232.25L505.88,231.64L507.36,235.75L508.85,235.73L510.33,233.54L511.81,233.28L513.3,234.39L516.26,233.91L517.75,232.49L519.23,233.28L520.71,232.17L522.2,213.74L523.68,233.74L525.16,232.63L526.65,235.59L529.62,234.41L531.1,234.84L532.58,233.68L534.07,235.04L535.55,233.42L537.03,200.01L540,226.31" style="vector-effect: none; fill: none; stroke: rgb(65, 105, 225); stroke-opacity: 1; stroke-width: 1px; opacity: 1;"/></g><g class="points"/><g class="text"/></g></g></g></g><g class="zerolinelayer-above"/><path class="xlines-above crisp" d="M0,0" style="fill: none;"/><path class="ylines-above crisp" d="M0,0" style="fill: none;"/><g class="overlines-above"/><g class="xaxislayer-above"><g class="xtick"><text text-anchor="middle" x="0" y="361.16" transform="translate(80,0)" style="font-family: 'Open Sans', verdana, arial, sans-serif; font-size: 12px; fill: rgb(42, 63, 95); fill-opacity: 1; white-space: pre;">Jan 2025</text></g><g class="xtick"><text text-anchor="middle" x="0" y="361.16" style="font-family: 'Open Sans', verdana, arial, sans-serif; font-size: 12px; fill: rgb(42, 63, 95); fill-opacity: 1; white-space: pre;" transform="translate(167.53,0)">Mar 2025</text></g><g class="xtick"><text text-anchor="middle" x="0" y="361.16" style="font-family: 'Open Sans', verdana, arial, sans-serif; font-size: 12px; fill: rgb(42, 63, 95); fill-opacity: 1; white-space: pre;" transform="translate(258.02,0)">May 2025</text></g><g class="xtick"><text text-anchor="middle" x="0" y="361.16" style="font-family: 'Open Sans', verdana, arial, sans-serif; font-size: 12px; fill: rgb(42, 63, 95); fill-opacity: 1; white-space: pre;" transform="translate(348.52,0)">Jul 2025</text></g><g class="xtick"><text text-anchor="middle" x="0" y="361.16" style="font-family: 'Open Sans', verdana, arial, sans-serif; font-size: 12px; fill: rgb(42, 63, 95); fill-opacity: 1; white-space: pre;" transform="translate(440.49,0)">Sep 2025</text></g><g class="xtick"><text text-anchor="middle" x="0" y="361.16" style="font-family: 'Open Sans', verdana, arial, sans-serif; font-size: 12px; fill: rgb(42, 63, 95); fill-opacity: 1; white-space: pre;" transform="translate(530.99,0)">Nov 2025</text></g></g><g class="yaxislayer-above"><g class="ytick"><text text-anchor="end" x="79" y="4.199999999999999" transform="translate(0,337.25)" style="font-family: 'Open Sans', verdana, arial, sans-serif; font-size: 12px; fill: rgb(42, 63, 95); fill-opacity: 1; white-space: pre;">0</text></g><g class="ytick"><text text-anchor="end" x="79" y="4.199999999999999" style="font-family: 'Open Sans', verdana, arial, sans-serif; font-size: 12px; fill: rgb(42, 63, 95); fill-opacity: 1; white-space: pre;" transform="translate(0,267.84000000000003)">5k</text></g><g class="ytick"><text text-anchor="end" x="79" y="4.199999999999999" style="font-family: 'Open Sans', verdana, arial, sans-serif; font-size: 12px; fill: rgb(42, 63, 95); fill-opacity: 1; white-space: pre;" transform="translate(0,198.42000000000002)">10k</text></g><g class="ytick"><text text-anchor="end" x="79" y="4.199999999999999" style="font-family: 'Open Sans', verdana, arial, sans-serif; font-size: 12px; fill: rgb(42, 63, 95); fill-opacity: 1; white-space: pre;" transform="translate(0,129)">15k</text></g></g><g class="overaxes-above"/></g><g class="subplot x2y2"><g class="layer-subplot"><g class="shapelayer"/><g class="imagelayer"/></g><g class="minor-gridlayer"><g class="x2"/><g class="y2"/></g><g class="gridlayer"><g class="x2"/><g class="y2"><path class="y2grid crisp" transform="translate(0,525.93)" d="M80,0h540" style="stroke: rgb(235, 240, 248); stroke-opacity: 1; stroke-width: 1px;"/><path class="y2grid crisp" transform="translate(0,481.85999999999996)" d="M80,0h540" style="stroke: rgb(235, 240, 248); stroke-opacity: 1; stroke-width: 1px;"/><path class="y2grid crisp" transform="translate(0,437.79999999999995)" d="M80,0h540" style="stroke: rgb(235, 240, 248); stroke-opacity: 1; stroke-width: 1px;"/></g></g><g class="zerolinelayer"><path class="y2zl zl crisp" transform="translate(0,570)" d="M80,0h540" style="stroke: rgb(235, 240, 248); stroke-opacity: 1; stroke-width: 2px;"/></g><g class="layer-between"><g class="shapelayer"/><g class="imagelayer"/></g><path class="xlines-below"/><path class="ylines-below"/><g class="overlines-below"/><g class="xaxislayer-below"/><g class="yaxislayer-below"/><g class="overaxes-below"/><g class="overplot"><g class="x2y2" transform="translate(80,404.55999999999995)" clip-path="url(#clip138cacx2y2plot)"><g class="barlayer mlayer"><g class="trace bars" style="opacity: 1;"><g class="points"><g class="point"><path d="M4.5,165.44V8.27H40.5V165.44Z" style="vector-effect: none; opacity: 1; stroke-width: 0.5px; fill: rgb(65, 105, 225); fill-opacity: 1; stroke: rgb(255, 255, 255); stroke-opacity: 1;"/><text class="bartext bartext-inside" text-anchor="middle" data-notex="1" x="0" y="0" style="font-family: 'Open Sans', verdana, arial, sans-serif; font-size: 12px; fill: rgb(255, 255, 255); fill-opacity: 1; white-space: pre;" transform="translate(22.5,23.27)">71.3</text></g><g class="point"><path d="M49.5,165.44V91.74H85.5V165.44Z" style="vector-effect: none; opacity: 1; stroke-width: 0.5px; fill: rgb(65, 105, 225); fill-opacity: 1; stroke: rgb(255, 255, 255); stroke-opacity: 1;"/><text class="bartext bartext-inside" text-anchor="middle" data-notex="1" x="0" y="0" style="font-family: 'Open Sans', verdana, arial, sans-serif; font-size: 12px; fill: rgb(255, 255, 255); fill-opacity: 1; white-space: pre;" transform="translate(67.3212890625,106.74)">33.5</text></g><g class="point"><path d="M94.5,165.44V146.89H130.5V165.44Z" style="vector-effect: none; opacity: 1; stroke-width: 0.5px; fill: rgb(65, 105, 225); fill-opacity: 1; stroke: rgb(255, 255, 255); stroke-opacity: 1;"/><text class="bartext bartext-outside" text-anchor="middle" data-notex="1" x="0" y="0" style="font-family: 'Open Sans', verdana, arial, sans-serif; font-size: 12px; fill: rgb(42, 63, 95); fill-opacity: 1; white-space: pre;" transform="translate(112.3154296875,140.89)">8.4</text></g><g class="point"><path d="M139.5,165.44V77.02H175.5V165.44Z" style="vector-effect: none; opacity: 1; stroke-width: 0.5px; fill: rgb(65, 105, 225); fill-opacity: 1; stroke: rgb(255, 255, 255); stroke-opacity: 1;"/><text class="bartext bartext-inside" text-anchor="middle" data-notex="1" x="0" y="0" style="font-family: 'Open Sans', verdana, arial, sans-serif; font-size: 12px; fill: rgb(255, 255, 255); fill-opacity: 1; white-space: pre;" transform="translate(157.5,92.02)">40.1</text></g><g class="point"><path d="M184.5,165.44V78.65H220.5V165.44Z" style="vector-effect: none; opacity: 1; stroke-width: 0.5px; fill: rgb(65, 105, 225); fill-opacity: 1; stroke: rgb(255, 255, 255); stroke-opacity: 1;"/><text class="bartext bartext-inside" text-anchor="middle" data-notex="1" x="0" y="0" style="font-family: 'Open Sans', verdana, arial, sans-serif; font-size: 12px; fill: rgb(255, 255, 255); fill-opacity: 1; white-space: pre;" transform="translate(202.3212890625,93.65)">39.4</text></g><g class="point"><path d="M229.5,165.44V95.15H265.5V165.44Z" style="vector-effect: none; opacity: 1; stroke-width: 0.5px; fill: rgb(65, 105, 225); fill-opacity: 1; stroke: rgb(255, 255, 255); stroke-opacity: 1;"/><text class="bartext bartext-inside" text-anchor="middle" data-notex="1" x="0" y="0" style="font-family: 'Open Sans', verdana, arial, sans-serif; font-size: 12px; fill: rgb(255, 255, 255); fill-opacity: 1; white-space: pre;" transform="translate(247.3212890625,110.15)">31.9</text></g><g class="point"><path d="M274.5,165.44V80.74H310.5V165.44Z" style="vector-effect: none; opacity: 1; stroke-width: 0.5px; fill: rgb(65, 105, 225); fill-opacity: 1; stroke: rgb(255, 255, 255); stroke-opacity: 1;"/><text class="bartext bartext-inside" text-anchor="middle" data-notex="1" x="0" y="0" style="font-family: 'Open Sans', verdana, arial, sans-serif; font-size: 12px; fill: rgb(255, 255, 255); fill-opacity: 1; white-space: pre;" transform="translate(292.3212890625,95.74)">38.4</text></g><g class="point"><path d="M319.5,165.44V89.05H355.5V165.44Z" style="vector-effect: none; opacity: 1; stroke-width: 0.5px; fill: rgb(65, 105, 225); fill-opacity: 1; stroke: rgb(255, 255, 255); stroke-opacity: 1;"/><text class="bartext bartext-inside" text-anchor="middle" data-notex="1" x="0" y="0" style="font-family: 'Open Sans', verdana, arial, sans-serif; font-size: 12px; fill: rgb(255, 255, 255); fill-opacity: 1; white-space: pre;" transform="translate(337.3212890625,104.05)">34.7</text></g><g class="point"><path d="M364.5,165.44V94.18H400.5V165.44Z" style="vector-effect: none; opacity: 1; stroke-width: 0.5px; fill: rgb(65, 105, 225); fill-opacity: 1; stroke: rgb(255, 255, 255); stroke-opacity: 1;"/><text class="bartext bartext-inside" text-anchor="middle" data-notex="1" x="0" y="0" style="font-family: 'Open Sans', verdana, arial, sans-serif; font-size: 12px; fill: rgb(255, 255, 255); fill-opacity: 1; white-space: pre;" transform="translate(382.5,109.18)">32.3</text></g><g class="point"><path d="M409.5,165.44V72.9H445.5V165.44Z" style="vector-effect: none; opacity: 1; stroke-width: 0.5px; fill: rgb(65, 105, 225); fill-opacity: 1; stroke: rgb(255, 255, 255); stroke-opacity: 1;"/><text class="bartext bartext-inside" text-anchor="middle" data-notex="1" x="0" y="0" style="font-family: 'Open Sans', verdana, arial, sans-serif; font-size: 12px; fill: rgb(255, 255, 255); fill-opacity: 1; white-space: pre;" transform="translate(427.3212890625,87.9)">42.0</text></g><g class="point"><path d="M454.5,165.44V51.19H490.5V165.44Z" style="vector-effect: none; opacity: 1; stroke-width: 0.5px; fill: rgb(65, 105, 225); fill-opacity: 1; stroke: rgb(255, 255, 255); stroke-opacity: 1;"/><text class="bartext bartext-inside" text-anchor="middle" data-notex="1" x="0" y="0" style="font-family: 'Open Sans', verdana, arial, sans-serif; font-size: 12px; fill: rgb(255, 255, 255); fill-opacity: 1; white-space: pre;" transform="translate(472.3212890625,66.19)">51.9</text></g><g class="point"><path d="M499.5,165.44V134.83H535.5V165.44Z" style="vector-effect: none; opacity: 1; stroke-width: 0.5px; fill: rgb(65, 105, 225); fill-opacity: 1; stroke: rgb(255, 255, 255); stroke-opacity: 1;"/><text class="bartext bartext-inside" text-anchor="middle" data-notex="1" x="0" y="0" style="font-family: 'Open Sans', verdana, arial, sans-serif; font-size: 12px; fill: rgb(255, 255, 255); fill-opacity: 1; white-space: pre;" transform="translate(517.3212890625,149.83)">13.9</text></g></g></g></g></g></g><g class="zerolinelayer-above"/><path class="xlines-above crisp" d="M0,0" style="fill: none;"/><path class="ylines-above crisp" d="M0,0" style="fill: none;"/><g class="overlines-above"/><g class="xaxislayer-above"><g class="x2tick"><text text-anchor="middle" x="0" y="583" transform="translate(102.5,0)" style="font-family: 'Open Sans', verdana, arial, sans-serif; font-size: 12px; fill: rgb(42, 63, 95); fill-opacity: 1; white-space: pre;">Jan</text></g><g class="x2tick"><text text-anchor="middle" x="0" y="583" transform="translate(147.5,0)" style="font-family: 'Open Sans', verdana, arial, sans-serif; font-size: 12px; fill: rgb(42, 63, 95); fill-opacity: 1; white-space: pre;">Feb</text></g><g class="x2tick"><text text-anchor="middle" x="0" y="583" transform="translate(192.5,0)" style="font-family: 'Open Sans', verdana, arial, sans-serif; font-size: 12px; fill: rgb(42, 63, 95); fill-opacity: 1; white-space: pre;">Mar</text></g><g class="x2tick"><text text-anchor="middle" x="0" y="583" transform="translate(237.5,0)" style="font-family: 'Open Sans', verdana, arial, sans-serif; font-size: 12px; fill: rgb(42, 63, 95); fill-opacity: 1; white-space: pre;">Apr</text></g><g class="x2tick"><text text-anchor="middle" x="0" y="583" transform="translate(282.5,0)" style="font-family: 'Open Sans', verdana, arial, sans-serif; font-size: 12px; fill: rgb(42, 63, 95); fill-opacity: 1; white-space: pre;">May</text></g><g class="x2tick"><text text-anchor="middle" x="0" y="583" transform="translate(327.5,0)" style="font-family: 'Open Sans', verdana, arial, sans-serif; font-size: 12px; fill: rgb(42, 63, 95); fill-opacity: 1; white-space: pre;">Jun</text></g><g class="x2tick"><text text-anchor="middle" x="0" y="583" transform="translate(372.5,0)" style="font-family: 'Open Sans', verdana, arial, sans-serif; font-size: 12px; fill: rgb(42, 63, 95); fill-opacity: 1; white-space: pre;">Jul</text></g><g class="x2tick"><text text-anchor="middle" x="0" y="583" transform="translate(417.5,0)" style="font-family: 'Open Sans', verdana, arial, sans-serif; font-size: 12px; fill: rgb(42, 63, 95); fill-opacity: 1; white-space: pre;">Aug</text></g><g class="x2tick"><text text-anchor="middle" x="0" y="583" transform="translate(462.5,0)" style="font-family: 'Open Sans', verdana, arial, sans-serif; font-size: 12px; fill: rgb(42, 63, 95); fill-opacity: 1; white-space: pre;">Sep</text></g><g class="x2tick"><text text-anchor="middle" x="0" y="583" transform="translate(507.5,0)" style="font-family: 'Open Sans', verdana, arial, sans-serif; font-size: 12px; fill: rgb(42, 63, 95); fill-opacity: 1; white-space: pre;">Oct</text></g><g class="x2tick"><text text-anchor="middle" x="0" y="583" transform="translate(552.5,0)" style="font-family: 'Open Sans', verdana, arial, sans-serif; font-size: 12px; fill: rgb(42, 63, 95); fill-opacity: 1; white-space: pre;">Nov</text></g><g class="x2tick"><text text-anchor="middle" x="0" y="583" transform="translate(597.5,0)" style="font-family: 'Open Sans', verdana, arial, sans-serif; font-size: 12px; fill: rgb(42, 63, 95); fill-opacity: 1; white-space: pre;">Dec</text></g></g><g class="yaxislayer-above"><g class="y2tick"><text text-anchor="end" x="79" y="4.199999999999999" transform="translate(0,570)" style="font-family: 'Open Sans', verdana, arial, sans-serif; font-size: 12px; fill: rgb(42, 63, 95); fill-opacity: 1; white-space: pre;">0</text></g><g class="y2tick"><text text-anchor="end" x="79" y="4.199999999999999" style="font-family: 'Open Sans', verdana, arial, sans-serif; font-size: 12px; fill: rgb(42, 63, 95); fill-opacity: 1; white-space: pre;" transform="translate(0,525.93)">20</text></g><g class="y2tick"><text text-anchor="end" x="79" y="4.199999999999999" style="font-family: 'Open Sans', verdana, arial, sans-serif; font-size: 12px; fill: rgb(42, 63, 95); fill-opacity: 1; white-space: pre;" transform="translate(0,481.85999999999996)">40</text></g><g class="y2tick"><text text-anchor="end" x="79" y="4.199999999999999" style="font-family: 'Open Sans', verdana, arial, sans-serif; font-size: 12px; fill: rgb(42, 63, 95); fill-opacity: 1; white-space: pre;" transform="translate(0,437.79999999999995)">60</text></g></g><g class="overaxes-above"/></g></g><g class="polarlayer"/><g class="smithlayer"/><g class="ternarylayer"/><g class="geolayer"/><g class="funnelarealayer"/><g class="pielayer"/><g class="iciclelayer"/><g class="treemaplayer"/><g class="sunburstlayer"/><g class="glimages"/><defs id="topdefs-138cac"><g class="clips"/></defs><g class="layer-above"><g class="imagelayer"/><g class="shapelayer"/></g><g class="infolayer"><g class="g-gtitle"><text class="gtitle" x="35" y="50" text-anchor="start" dy="0em" style="opacity: 1; font-family: 'Open Sans', verdana, arial, sans-serif; font-size: 17px; fill: rgb(42, 63, 95); fill-opacity: 1; white-space: pre;">Wind Turbine Output — myTurbine</text></g><g class="g-xtitle"/><g class="g-x2title"><text class="x2title" x="350" y="610.3" text-anchor="middle" style="opacity: 1; font-family: 'Open Sans', verdana, arial, sans-serif; font-size: 14px; fill: rgb(42, 63, 95); fill-opacity: 1; white-space: pre;">Month</text></g><g class="g-ytitle"><text class="ytitle" transform="rotate(-90,37.240625,224.08)" x="37.240625" y="224.08" text-anchor="middle" style="opacity: 1; font-family: 'Open Sans', verdana, arial, sans-serif; font-size: 14px; fill: rgb(42, 63, 95); fill-opacity: 1; white-space: pre;">Energy (Wh)</text></g><g class="g-y2title"><text class="y2title" transform="rotate(-90,44.334375,487.28)" x="44.334375" y="487.28" text-anchor="middle" style="opacity: 1; font-family: 'Open Sans', verdana, arial, sans-serif; font-size: 14px; fill: rgb(42, 63, 95); fill-opacity: 1; white-space: pre;">Energy (kWh)</text></g><g class="annotation" data-index="0" style="opacity: 1;"><g class="annotation-text-g" transform="rotate(0,350,88.5)"><g class="cursor-pointer" transform="translate(242,77)"><rect class="bg" x="0.5" y="0.5" width="216" height="22" style="stroke-width: 1px; stroke: rgb(0, 0, 0); stroke-opacity: 0; fill: rgb(0, 0, 0); fill-opacity: 0;"/><text class="annotation-text" text-anchor="middle" x="108.3359375" y="18" style="font-family: 'Open Sans', verdana, arial, sans-serif; font-size: 16px; fill: rgb(42, 63, 95); fill-opacity: 1; white-space: pre;">Daily Wind Turbine Energy</text></g></g></g><g class="annotation" data-index="1" style="opacity: 1;"><g class="annotation-text-g" transform="rotate(0,350,393.05999999999995)"><g class="cursor-pointer" transform="translate(230,382)"><rect class="bg" x="0.5" y="0.5" width="240" height="22" style="stroke-width: 1px; stroke: rgb(0, 0, 0); stroke-opacity: 0; fill: rgb(0, 0, 0); fill-opacity: 0;"/><text class="annotation-text" text-anchor="middle" x="120.046875" y="18" style="font-family: 'Open Sans', verdana, arial, sans-serif; font-size: 16px; fill: rgb(42, 63, 95); fill-opacity: 1; white-space: pre;">Monthly Wind Turbine Energy</text></g></g></g><g class="annotation" data-index="2" style="opacity: 1;"><g class="annotation-text-g" transform="rotate(0,158.57,109.5)"><g class="cursor-pointer" transform="translate(107,100)"><rect class="bg" x="0.5" y="0.5" width="103" height="18" style="stroke-width: 1px; stroke: rgb(0, 0, 0); stroke-opacity: 0; fill: rgb(0, 0, 0); fill-opacity: 0;"/><text class="annotation-text" text-anchor="middle" x="51.9453125" y="14" style="font-family: 'Open Sans', verdana, arial, sans-serif; font-size: 12px; fill: rgb(178, 34, 34); fill-opacity: 1; white-space: pre;">Peak: 13523 Wh</text></g></g><g class="annotation-arrow-g" style="opacity: 1;"><path d="M149.57,118.5L118.57,149.5" style="stroke-width: 1px; stroke: rgb(178, 34, 34); stroke-opacity: 1; stroke-dasharray: 0px, 0px, 42.5406px, 43.8406px;"/><path d="M-3.7,-2.5V2.5L1.3,0Z" transform="translate(119.4892349243164,148.5807647705078)rotate(135)" style="fill: rgb(178, 34, 34); stroke-width: 0;"/></g></g></g></svg>